<?xml version="1.0" encoding="UTF-8"?>
<svg version="1.1" xmlns="http://www.w3.org/2000/svg" width="178" height="123">
<path d="M0 0 C58.74 0 117.48 0 178 0 C178 40.59 178 81.18 178 123 C119.26 123 60.52 123 0 123 C0 82.41 0 41.82 0 0 Z " fill="#3F496F" transform="translate(0,0)"/>
<path d="M0 0 C11.79462206 5.95378323 19.78234543 14.65347957 24.06640625 27.09765625 C25.36644444 31.77231465 25.41863564 36.48778046 25.5625 41.3125 C25.6223087 43.10039847 25.68592123 44.88817502 25.75390625 46.67578125 C25.77783447 47.45864502 25.8017627 48.24150879 25.82641602 49.0480957 C25.88695166 51.07909194 25.88695166 51.07909194 27 53 C27.09608608 54.83128771 27.12982579 56.66619959 27.125 58.5 C27.12886719 59.96953125 27.12886719 59.96953125 27.1328125 61.46875 C27 64 27 64 26 66 C26.64066406 66.14695312 27.28132813 66.29390625 27.94140625 66.4453125 C35.89616435 68.50809627 41.166658 71.60712836 45.4375 78.75 C47 82 47 82 47 84 C46.0246803 85.02408568 45.01801357 86.01834406 44 87 C43.443125 87.825 42.88625 88.65 42.3125 89.5 C38.8690057 93.22269654 34.72356785 94.43667212 29.828125 95.44921875 C27.78006584 95.84381591 27.78006584 95.84381591 26.75 98.0625 C26.37875 99.0215625 26.37875 99.0215625 26 100 C25.01 100 24.02 100 23 100 C23 98.68 23 97.36 23 96 C21.27692627 96.24556641 21.27692627 96.24556641 19.51904297 96.49609375 C13.02271874 97.21297312 6.51721847 97.11151276 -0.00878525 97.07516479 C-2.34588275 97.06227276 -4.68292279 97.05585417 -7.02005005 97.05102539 C-11.97172615 97.03967186 -16.92335399 97.0203964 -21.875 97 C-27.63696062 96.97637573 -33.39889487 96.95602347 -39.16089249 96.94406128 C-41.46259415 96.93758329 -43.7642131 96.92508282 -46.06588745 96.91235352 C-47.47214689 96.90872226 -48.87840709 96.90537037 -50.28466797 96.90234375 C-51.51216766 96.89710693 -52.73966736 96.89187012 -54.00436401 96.88647461 C-57.05267658 96.86196189 -57.05267658 96.86196189 -60 98 C-60.33 97.01 -60.66 96.02 -61 95 C-62.134375 94.9175 -63.26875 94.835 -64.4375 94.75 C-70.81401239 93.92467127 -76.75459176 91.8789538 -81 86.875 C-84.47246834 81.88332675 -84.53800479 77.99356212 -84 72 C-82.38727433 68.31376989 -81.369675 67.24645 -78 65 C-73.13105183 64.27929511 -68.55429855 64.18720241 -64.375 67 C-63.59125 67.66 -62.8075 68.32 -62 69 C-62.06960937 67.64068359 -62.06960937 67.64068359 -62.140625 66.25390625 C-62.34684789 59.29388363 -62.27154383 53.93756049 -58.875 47.76953125 C-57.77837419 45.8808094 -57.77837419 45.8808094 -58 43 C-56.515 43.495 -56.515 43.495 -55 44 C-52.93330603 43.09166275 -52.93330603 43.09166275 -51 42 C-50.34 42 -49.68 42 -49 42 C-48.67 39.69 -48.34 37.38 -48 35 C-45.525 36.98 -45.525 36.98 -43 39 C-42.34 37.35 -41.68 35.7 -41 34 C-35.25 33.875 -35.25 33.875 -33 35 C-32.27840576 36.64363134 -31.60648579 38.31050386 -31 40 C-29.35 38.02 -27.7 36.04 -26 34 C-32.93 33.505 -32.93 33.505 -40 33 C-38 30 -38 30 -34.4375 29.125 C-30.13517872 28.69476787 -26.99698137 29.91860268 -23.0234375 31.4375 C-20.18245423 32.22727141 -18.64385236 31.15244847 -16 30 C-11.01341302 30.51196992 -7.21299159 32.34493759 -3 35 C-3.74672172 26.55431981 -4.7168457 20.03004145 -11 14 C-13.99371105 11.61384998 -13.99371105 11.61384998 -17 10 C-17.6290625 9.64292969 -18.258125 9.28585938 -18.90625 8.91796875 C-22.51836925 7.33429706 -26.13231045 7.53908363 -30 8 C-33.45346148 9.34746524 -33.45346148 9.34746524 -36 11 C-35.79375 12.11375 -35.5875 13.2275 -35.375 14.375 C-35.25125 15.57125 -35.1275 16.7675 -35 18 C-37 20 -37 20 -39.5 20.25 C-42 20 -42 20 -44 18 C-43.625 15.375 -43.625 15.375 -43 13 C-42.21625 12.938125 -41.4325 12.87625 -40.625 12.8125 C-39.325625 12.4103125 -39.325625 12.4103125 -38 12 C-36.86454438 9.70465742 -36.86454438 9.70465742 -36 7 C-27.84267319 -5.38705183 -12.53306309 -4.98131645 0 0 Z " fill="#545E82" transform="translate(107,13)"/>
<path d="M0 0 C11.8160709 5.96461034 19.88914641 14.7123613 24.08203125 27.23046875 C28.0700392 43.60675671 23.49829662 59.89679568 15 74 C8.04654652 83.61675736 -2.08835873 91.77518105 -14 94 C-24.29954107 95.29289021 -33.63036162 92.98190067 -42.0078125 86.76953125 C-48.68787676 80.93636973 -48.68787676 80.93636973 -50 77 C-49.0925 77.33 -48.185 77.66 -47.25 78 C-39.76904778 80.05537273 -32.49650627 80.32409857 -25.625 76.4375 C-21.44766778 73.58074377 -17.5631477 70.43102861 -15 66 C-14.96213099 64.33376361 -14.95372155 62.66602403 -15 61 C-14.236875 60.566875 -13.47375 60.13375 -12.6875 59.6875 C-8.72676456 57.20052658 -8.36973386 54.39756661 -7 50 C-8.98 50 -10.96 50 -13 50 C-11.82070468 47.21257469 -10.4919106 45.40299495 -8.5 43.0625 C-4.52299571 38.19066974 -3.58596596 34.451564 -3.75 28.26953125 C-4.41420402 22.2398041 -7.54941784 17.02988036 -12 13 C-17.05534275 9.26258707 -21.5742611 7.26908132 -27.9140625 7.625 C-30.95420288 8.17154209 -33.38692452 9.39195355 -36 11 C-35.79375 12.11375 -35.5875 13.2275 -35.375 14.375 C-35.25125 15.57125 -35.1275 16.7675 -35 18 C-37 20 -37 20 -39.5 20.25 C-42 20 -42 20 -44 18 C-43.625 15.375 -43.625 15.375 -43 13 C-42.21625 12.938125 -41.4325 12.87625 -40.625 12.8125 C-39.325625 12.4103125 -39.325625 12.4103125 -38 12 C-36.86454438 9.70465742 -36.86454438 9.70465742 -36 7 C-27.84267319 -5.38705183 -12.53306309 -4.98131645 0 0 Z " fill="#F0C071" transform="translate(107,13)"/>
<path d="M0 0 C5.75 -0.125 5.75 -0.125 8 1 C8.72159424 2.64363134 9.39351421 4.31050386 10 6 C10.61875 5.175 11.2375 4.35 11.875 3.5 C12.57625 2.675 13.2775 1.85 14 1 C14.66 1 15.32 1 16 1 C16.50534727 3.72827365 17.00443845 6.45744694 17.5 9.1875 C17.64308594 9.95642578 17.78617188 10.72535156 17.93359375 11.51757812 C18.63238715 15.39421773 19.19039017 19.041471 19 23 C19.66 23 20.32 23 21 23 C21.66 25.97 22.32 28.94 23 32 C22.01 32.33 21.02 32.66 20 33 C20 33.99 20 34.98 20 36 C19.113125 36.433125 18.22625 36.86625 17.3125 37.3125 C14.07536641 38.85134711 14.07536641 38.85134711 11.6875 40.6875 C7.69730379 42.63620048 4.35103941 42.86883963 0 42 C-4.44485329 39.92361853 -8.5221642 37.4778358 -12 34 C-12.46846262 27.38863242 -11.34171303 21.17232158 -10.125 14.6875 C-9.95097656 13.69943359 -9.77695312 12.71136719 -9.59765625 11.69335938 C-9.42363281 10.74654297 -9.24960937 9.79972656 -9.0703125 8.82421875 C-8.91320801 7.96916748 -8.75610352 7.11411621 -8.59423828 6.2331543 C-8 4 -8 4 -6 1 C-4.68 2.32 -3.36 3.64 -2 5 C-1.34 3.35 -0.68 1.7 0 0 Z " fill="#9CD7BC" transform="translate(66,47)"/>
<path d="M0 0 C0.66 0.33 1.32 0.66 2 1 C2.59355614 3.64860427 2.74209269 6.29197322 3 9 C3.66 9 4.32 9 5 9 C5.66 11.97 6.32 14.94 7 18 C6.01 18.33 5.02 18.66 4 19 C4 19.99 4 20.98 4 22 C3.113125 22.433125 2.22625 22.86625 1.3125 23.3125 C-1.92463359 24.85134711 -1.92463359 24.85134711 -4.3125 26.6875 C-8.19920186 28.58565672 -11.74866087 28.59964639 -16 28 C-19.0625 26.5 -19.0625 26.5 -21 25 C-19.515 19.555 -19.515 19.555 -18 14 C-16.96875 13.87625 -15.9375 13.7525 -14.875 13.625 C-11.32131377 13.0518248 -8.27855616 12.48315636 -5 11 C-4.25723969 9.02919843 -4.25723969 9.02919843 -4 7 C-3.01 6.34 -2.02 5.68 -1 5 C-0.27034634 2.43717258 -0.27034634 2.43717258 0 0 Z " fill="#A1DDC0" transform="translate(82,61)"/>
<path d="M0 0 C-0.61617187 0.28488281 -1.23234375 0.56976563 -1.8671875 0.86328125 C-5.27325575 2.67860334 -7.35443857 5.2519067 -8.6953125 8.8828125 C-9.18161662 10.57460288 -9.59682269 12.28649644 -10 14 C-10.68964844 13.566875 -11.37929687 13.13375 -12.08984375 12.6875 C-18.10929856 9.12041567 -22.93368033 6.56208611 -30 8 C-33.45346148 9.34746524 -33.45346148 9.34746524 -36 11 C-35.79375 12.11375 -35.5875 13.2275 -35.375 14.375 C-35.25125 15.57125 -35.1275 16.7675 -35 18 C-37 20 -37 20 -39.5 20.25 C-42 20 -42 20 -44 18 C-43.625 15.375 -43.625 15.375 -43 13 C-42.21625 12.938125 -41.4325 12.87625 -40.625 12.8125 C-39.325625 12.4103125 -39.325625 12.4103125 -38 12 C-36.86454438 9.70465742 -36.86454438 9.70465742 -36 7 C-27.51181642 -5.88946395 -12.94361799 -4.20604995 0 0 Z " fill="#BD4555" transform="translate(107,13)"/>
<path d="M0 0 C2.86724686 0.57344937 3.8614515 0.8614515 6 3 C8.57061311 3.64767793 8.57061311 3.64767793 11 4 C11 5.32 11 6.64 11 8 C11.99 8.33 12.98 8.66 14 9 C14 10.32 14 11.64 14 13 C9.38553817 14.53815394 4.77019697 14.18443162 -0.0625 14.1875 C-1.59100586 14.20586914 -1.59100586 14.20586914 -3.15039062 14.22460938 C-4.60928711 14.22750977 -4.60928711 14.22750977 -6.09765625 14.23046875 C-6.98976807 14.23457764 -7.88187988 14.23868652 -8.80102539 14.24291992 C-11 14 -11 14 -13 12 C-12.625 9.375 -12.625 9.375 -12 7 C-11.34 7 -10.68 7 -10 7 C-9.34 5.68 -8.68 4.36 -8 3 C-7.05125 3.061875 -6.1025 3.12375 -5.125 3.1875 C-3.578125 3.0946875 -3.578125 3.0946875 -2 3 C-1.34 2.01 -0.68 1.02 0 0 Z " fill="#545E82" transform="translate(16,6)"/>
<path d="M0 0 C2.97397616 0.27036147 3.85446026 0.85446026 6 3 C8.06874034 3.6425235 8.06874034 3.6425235 10 4 C10 5.32 10 6.64 10 8 C11.32 8.33 12.64 8.66 14 9 C13.67 10.65 13.34 12.3 13 14 C9.06263877 14.08696177 5.12552372 14.14037835 1.1875 14.1875 C-0.49182617 14.22520508 -0.49182617 14.22520508 -2.20507812 14.26367188 C-3.27822266 14.27333984 -4.35136719 14.28300781 -5.45703125 14.29296875 C-6.9416687 14.31653442 -6.9416687 14.31653442 -8.45629883 14.34057617 C-11.3699213 13.95047123 -12.22497802 13.27991712 -14 11 C-13.67 10.01 -13.34 9.02 -13 8 C-11.68 8 -10.36 8 -9 8 C-8.67 6.35 -8.34 4.7 -8 3 C-7.236875 3.061875 -6.47375 3.12375 -5.6875 3.1875 C-2.95010308 3.29186282 -2.95010308 3.29186282 -1.4375 1.4375 C-0.963125 0.963125 -0.48875 0.48875 0 0 Z " fill="#515A81" transform="translate(160,20)"/>
<path d="M0 0 C2.97397616 0.27036147 3.85446026 0.85446026 6 3 C8.06874034 3.6425235 8.06874034 3.6425235 10 4 C10.103125 4.639375 10.20625 5.27875 10.3125 5.9375 C10.6528125 6.9584375 10.6528125 6.9584375 11 8 C11.99 8.33 12.98 8.66 14 9 C14 10.32 14 11.64 14 13 C8.79267052 15.60366474 0.76597481 15.56513105 -5 15 C-8.59186435 13.53631528 -11.2415382 11.71130861 -14 9 C-13.06414062 8.58621094 -13.06414062 8.58621094 -12.109375 8.1640625 C-9.34397156 6.63796949 -8.44794372 4.75109306 -7 2 C-6.401875 2.226875 -5.80375 2.45375 -5.1875 2.6875 C-4.465625 2.790625 -3.74375 2.89375 -3 3 C-2.505 2.505 -2.01 2.01 -1.5 1.5 C-1.005 1.005 -0.51 0.51 0 0 Z " fill="#525B81" transform="translate(124,7)"/>
<path d="M0 0 C2.9375 0.875 2.9375 0.875 4.9375 3.875 C5.453125 3.194375 5.96875 2.51375 6.5 1.8125 C8.9375 -0.125 8.9375 -0.125 12.6875 0.125 C13.76 0.3725 14.8325 0.62 15.9375 0.875 C16.5625 4.25 16.5625 4.25 16.9375 7.875 C14.17526722 10.63723278 11.73043383 10.45356291 7.9375 10.875 C7.6075 11.865 7.2775 12.855 6.9375 13.875 C6.2775 13.875 5.6175 13.875 4.9375 13.875 C4.2775 12.555 3.6175 11.235 2.9375 9.875 C2.6075 10.205 2.2775 10.535 1.9375 10.875 C-0.87201486 11.17073841 -2.47878976 11.25743085 -4.875 9.6875 C-6.48775784 7.22592224 -6.4959014 5.76434264 -6.0625 2.875 C-4.29035152 -0.0785808 -3.47140412 -0.14168996 0 0 Z " fill="#616D6F" transform="translate(65.0625,58.125)"/>
<path d="M0 0 C5.75 -0.125 5.75 -0.125 8 1 C8.72159424 2.64363134 9.39351421 4.31050386 10 6 C10.61875 5.175 11.2375 4.35 11.875 3.5 C12.57625 2.675 13.2775 1.85 14 1 C14.66 1 15.32 1 16 1 C16.36504603 2.58086048 16.71660506 4.16483907 17.0625 5.75 C17.35833984 7.07257812 17.35833984 7.07257812 17.66015625 8.421875 C17.99825872 10.98679028 17.81158635 12.57091639 17 15 C16.34 14.67 15.68 14.34 15 14 C15 13.34 15 12.68 15 12 C11.58343976 11.83322718 11.58343976 11.83322718 8 12 C5.64046906 14.35953094 5.50858587 15.77895617 5 19 C3.52839263 16.20330895 2.40889368 13.443226 1.4375 10.4375 C1.18871094 9.67308594 0.93992187 8.90867187 0.68359375 8.12109375 C0.45800781 7.42113281 0.23242188 6.72117187 0 6 C-0.33 5.01 -0.66 4.02 -1 3 C-0.67 2.01 -0.34 1.02 0 0 Z " fill="#9CD6BC" transform="translate(66,47)"/>
<path d="M0 0 C0.7425 0.185625 1.485 0.37125 2.25 0.5625 C2.8275 0.706875 3.405 0.85125 4 1 C4 2.32 4 3.64 4 5 C4.99 5 5.98 5 7 5 C7 6.32 7 7.64 7 9 C7.66 9 8.32 9 9 9 C9 9.99 9 10.98 9 12 C8.01 12 7.02 12 6 12 C6 11.01 6 10.02 6 9 C-0.27 9 -6.54 9 -13 9 C-13.33 7.68 -13.66 6.36 -14 5 C-13.01 4.67 -12.02 4.34 -11 4 C-10.71125 3.34 -10.4225 2.68 -10.125 2 C-9 0 -9 0 -6.625 -0.8125 C-4.04386559 -0.99686674 -2.43744691 -0.7862732 0 0 Z " fill="#566284" transform="translate(48,16)"/>
<path d="M0 0 C0.33 0 0.66 0 1 0 C1 1.65 1 3.3 1 5 C1.66 5 2.32 5 3 5 C3.66 7.97 4.32 10.94 5 14 C4.01 14.33 3.02 14.66 2 15 C2 15.99 2 16.98 2 18 C0.35 18.33 -1.3 18.66 -3 19 C-4.18391699 15.30025941 -4.27585754 11.86200562 -4 8 C-2.5625 5.8125 -2.5625 5.8125 -1 4 C-0.29485154 1.85266073 -0.29485154 1.85266073 0 0 Z " fill="#81BEA5" transform="translate(84,65)"/>
<path d="M0 0 C4.95 0 9.9 0 15 0 C15 0.99 15 1.98 15 3 C14.34 3.66 13.68 4.32 13 5 C12.34 5 11.68 5 11 5 C11.66 5.33 12.32 5.66 13 6 C13 6.66 13 7.32 13 8 C11.02 8 9.04 8 7 8 C7 8.99 7 9.98 7 11 C6.01 11 5.02 11 4 11 C4 10.01 4 9.02 4 8 C3.34 8 2.68 8 2 8 C2 7.01 2 6.02 2 5 C1.34 5 0.68 5 0 5 C0 3.35 0 1.7 0 0 Z " fill="#B0E3C7" transform="translate(64,75)"/>
<path d="M0 0 C0.33 0.99 0.66 1.98 1 3 C2.94603274 3.59070014 2.94603274 3.59070014 5 4 C7 6 7 6 7.1953125 8.3828125 C7.16050781 9.74019531 7.16050781 9.74019531 7.125 11.125 C7.10695313 12.03507812 7.08890625 12.94515625 7.0703125 13.8828125 C7.04710937 14.58148438 7.02390625 15.28015625 7 16 C6.01 16.33 5.02 16.66 4 17 C1.3125 15.5625 1.3125 15.5625 -1 13 C-1.43697492 8.41176338 -1.12015589 4.48062358 0 0 Z " fill="#80BDA4" transform="translate(55,68)"/>
<path d="M0 0 C5.75 -0.125 5.75 -0.125 8 1 C7.67 3.97 7.34 6.94 7 10 C5.35 10.33 3.7 10.66 2 11 C-1.07692308 5.70769231 -1.07692308 5.70769231 -0.6875 2.125 C-0.460625 1.42375 -0.23375 0.7225 0 0 Z " fill="#BDDCC5" transform="translate(66,47)"/>
<path d="M0 0 C3.625 0.375 3.625 0.375 7 1 C5.19279373 2.80720627 3.37739028 4.57591399 1.5 6.3125 C-1.05652263 9.06076182 -2.49085159 11.58455885 -4 15 C-4.66 14.67 -5.32 14.34 -6 14 C-6.50547389 8.6925242 -5.22743563 6.17668141 -2 2 C-1.34 1.34 -0.68 0.68 0 0 Z " fill="#D9E7E1" transform="translate(103,14)"/>
<path d="M0 0 C1.03125 0.309375 2.0625 0.61875 3.125 0.9375 C2.5475 1.164375 1.97 1.39125 1.375 1.625 C-2.74849391 4.03037145 -4.82883726 7.24081414 -6.125 11.75 C-6.3725 12.801875 -6.62 13.85375 -6.875 14.9375 C-8.195 14.2775 -9.515 13.6175 -10.875 12.9375 C-10.62819334 7.87796342 -8.95236761 4.88417386 -5.640625 1.21875 C-3.875 -0.0625 -3.875 -0.0625 0 0 Z " fill="#C25462" transform="translate(103.875,12.0625)"/>
<path d="M0 0 C1.11375 0.1546875 1.11375 0.1546875 2.25 0.3125 C0.59710721 3.89376772 -1.53322183 7.05660707 -3.75 10.3125 C-4.74 11.7975 -4.74 11.7975 -5.75 13.3125 C-6.41 12.9825 -7.07 12.6525 -7.75 12.3125 C-7.30901266 6.68991148 -6.52586166 0.74157519 0 0 Z " fill="#D8E5E1" transform="translate(97.75,10.6875)"/>
<path d="M0 0 C0 0.99 0 1.98 0 3 C-5.78591511 3.10477512 -11.29309366 2.99250545 -17 2 C-15 -1 -15 -1 -12.4375 -1.8125 C-8.0285852 -2.05298626 -4.23740547 -1.13939125 0 0 Z " fill="#C1939B" transform="translate(84,44)"/>
<path d="M0 0 C1.11375 0.1546875 1.11375 0.1546875 2.25 0.3125 C1.90066406 0.84359375 1.55132812 1.3746875 1.19140625 1.921875 C0.73636719 2.62828125 0.28132813 3.3346875 -0.1875 4.0625 C-0.63996094 4.75859375 -1.09242187 5.4546875 -1.55859375 6.171875 C-2.7108009 8.24207014 -3.29676982 9.99946324 -3.75 12.3125 C-5.07 11.9825 -6.39 11.6525 -7.75 11.3125 C-7.2542299 5.98297138 -6.0234775 0.68448608 0 0 Z " fill="#C14F5E" transform="translate(93.75,9.6875)"/>
<path d="M0 0 C2.27057377 -0.05398987 4.54151288 -0.09278742 6.8125 -0.125 C8.07707031 -0.14820313 9.34164062 -0.17140625 10.64453125 -0.1953125 C14 0 14 0 17 2 C16.2575 2.2475 15.515 2.495 14.75 2.75 C11.79875938 4.09147301 10.15185026 5.60905526 8 8 C7.67 6.02 7.34 4.04 7 2 C4.69 1.67 2.38 1.34 0 1 C0 0.67 0 0.34 0 0 Z " fill="#674E6C" transform="translate(67,46)"/>
<path d="M0 0 C1.2065625 0.0309375 1.2065625 0.0309375 2.4375 0.0625 C3.5625 4.8125 3.5625 4.8125 2.4375 7.0625 C-0.5325 6.5675 -0.5325 6.5675 -3.5625 6.0625 C-3.605221 4.39638095 -3.60313832 2.72867115 -3.5625 1.0625 C-2.5625 0.0625 -2.5625 0.0625 0 0 Z " fill="#C8A46A" transform="translate(76.5625,59.9375)"/>
<path d="M0 0 C1.2065625 0.0309375 1.2065625 0.0309375 2.4375 0.0625 C3.0625 2.4375 3.0625 2.4375 3.4375 5.0625 C2.7775 5.7225 2.1175 6.3825 1.4375 7.0625 C-1.1875 6.6875 -1.1875 6.6875 -3.5625 6.0625 C-3.605221 4.39638095 -3.60313832 2.72867115 -3.5625 1.0625 C-2.5625 0.0625 -2.5625 0.0625 0 0 Z " fill="#FDD389" transform="translate(122.5625,56.9375)"/>
<path d="M0 0 C1.98 0 3.96 0 6 0 C4.35 3.3 2.7 6.6 1 10 C0.01 10 -0.98 10 -2 10 C-2.17942163 6.05272412 -2.09350689 3.4019487 0 0 Z " fill="#D6E3DF" transform="translate(85,10)"/>
<path d="M0 0 C2.0625 0.4375 2.0625 0.4375 4 1 C4.33 2.65 4.66 4.3 5 6 C2.625 6.625 2.625 6.625 0 7 C-0.66 6.34 -1.32 5.68 -2 5 C-1.46428571 1.46428571 -1.46428571 1.46428571 0 0 Z " fill="#F7CE88" transform="translate(112,85)"/>
<path d="M0 0 C2.64 0 5.28 0 8 0 C8.33 1.32 8.66 2.64 9 4 C5.04 4 1.08 4 -3 4 C-2.01 3.67 -1.02 3.34 0 3 C0 2.01 0 1.02 0 0 Z " fill="#6C617F" transform="translate(67,89)"/>
<path d="M0 0 C-0.66 2.64 -1.32 5.28 -2 8 C-3.32 8 -4.64 8 -6 8 C-6 5.36 -6 2.72 -6 0 C-3 -1 -3 -1 0 0 Z " fill="#C24F5E" transform="translate(85,12)"/>
<path d="M0 0 C1.65 0.33 3.3 0.66 5 1 C5.38218767 2.65614657 5.71395102 4.32457024 6 6 C5 7 5 7 2.4375 7.0625 C1.2309375 7.0315625 1.2309375 7.0315625 0 7 C0 6.01 0 5.02 0 4 C1.32 4 2.64 4 4 4 C2.35 3.67 0.7 3.34 -1 3 C-0.67 2.01 -0.34 1.02 0 0 Z " fill="#EBBC70" transform="translate(62,60)"/>
<path d="M0 0 C5.75 -0.125 5.75 -0.125 8 1 C8 1.99 8 2.98 8 4 C3.545 4.495 3.545 4.495 -1 5 C-0.67 3.35 -0.34 1.7 0 0 Z " fill="#CB9198" transform="translate(66,47)"/>
<path d="M0 0 C2.0625 0.4375 2.0625 0.4375 4 1 C3.67 2.65 3.34 4.3 3 6 C1.35 5.67 -0.3 5.34 -2 5 C-1.125 1.125 -1.125 1.125 0 0 Z " fill="#FDD289" transform="translate(111,72)"/>
<path d="M0 0 C1.67542976 0.28604898 3.34385343 0.61781233 5 1 C4.67 2.65 4.34 4.3 4 6 C2.68 5.67 1.36 5.34 0 5 C-0.5625 3.0625 -0.5625 3.0625 -1 1 C-0.67 0.67 -0.34 0.34 0 0 Z " fill="#FDD288" transform="translate(115,25)"/>
<path d="M0 0 C0.99 0.33 1.98 0.66 3 1 C2.01 1.99 1.02 2.98 0 4 C1.98 4 3.96 4 6 4 C5.67 4.66 5.34 5.32 5 6 C2.9375 6.625 2.9375 6.625 1 7 C1.33 7.66 1.66 8.32 2 9 C0.68 8.34 -0.64 7.68 -2 7 C-2.125 4.625 -2.125 4.625 -2 2 C-1.34 1.34 -0.68 0.68 0 0 Z " fill="#777267" transform="translate(61,59)"/>
<path d="M0 0 C2.0625 0.4375 2.0625 0.4375 4 1 C4 2.65 4 4.3 4 6 C2.35 6 0.7 6 -1 6 C-1.042721 4.33388095 -1.04063832 2.66617115 -1 1 C-0.67 0.67 -0.34 0.34 0 0 Z " fill="#FCD187" transform="translate(105,58)"/>
<path d="M0 0 C0.66 1.32 1.32 2.64 2 4 C3.62746694 5.70496537 5.28891311 7.37897032 7 9 C4.69 9 2.38 9 0 9 C0 6.03 0 3.06 0 0 Z " fill="#000000" transform="translate(0,114)"/>
<path d="M0 0 C-0.33 1.32 -0.66 2.64 -1 4 C-2.65 3.67 -4.3 3.34 -6 3 C-6 2.01 -6 1.02 -6 0 C-3.50907189 -1.24546405 -2.58919267 -0.7767578 0 0 Z " fill="#FCD187" transform="translate(82,98)"/>
<path d="M0 0 C0.33 0.99 0.66 1.98 1 3 C3.01508358 3.73323796 3.01508358 3.73323796 5 4 C4.67 4.99 4.34 5.98 4 7 C3.01 7.33 2.02 7.66 1 8 C0.34 7.67 -0.32 7.34 -1 7 C-0.67 4.69 -0.34 2.38 0 0 Z " fill="#78B0A1" transform="translate(55,68)"/>
<path d="M0 0 C0 2.31 0 4.62 0 7 C-1.32 7.33 -2.64 7.66 -4 8 C-4.1875 5.125 -4.1875 5.125 -4 2 C-1 0 -1 0 0 0 Z " fill="#D1D4D3" transform="translate(79,13)"/>
<path d="M0 0 C1.65 0.33 3.3 0.66 5 1 C4.34 2.32 3.68 3.64 3 5 C1.68 4.67 0.36 4.34 -1 4 C-0.67 2.68 -0.34 1.36 0 0 Z " fill="#FCD187" transform="translate(95,98)"/>
<path d="M0 0 C1.2065625 0.0309375 1.2065625 0.0309375 2.4375 0.0625 C2.4375 1.7125 2.4375 3.3625 2.4375 5.0625 C0.7875 5.0625 -0.8625 5.0625 -2.5625 5.0625 C-3.125 3.125 -3.125 3.125 -3.5625 1.0625 C-2.5625 0.0625 -2.5625 0.0625 0 0 Z " fill="#98D1BA" transform="translate(75.5625,67.9375)"/>
<path d="M0 0 C1.98 0 3.96 0 6 0 C5.38125 0.7425 4.7625 1.485 4.125 2.25 C1.80329196 5.07171298 1.80329196 5.07171298 0 9 C0 6.03 0 3.06 0 0 Z " fill="#000000" transform="translate(0,0)"/>
<path d="M0 0 C2.475 0.495 2.475 0.495 5 1 C4.67 2.32 4.34 3.64 4 5 C2.68 5 1.36 5 0 5 C0 3.35 0 1.7 0 0 Z " fill="#FDD389" transform="translate(91,86)"/>
<path d="M0 0 C0.33 0 0.66 0 1 0 C1 1.65 1 3.3 1 5 C1.66 5 2.32 5 3 5 C3.33 6.32 3.66 7.64 4 9 C3.01 9.33 2.02 9.66 1 10 C0.34 9.34 -0.32 8.68 -1 8 C-0.96712417 5.27130593 -0.43602229 2.7033382 0 0 Z " fill="#79AFA1" transform="translate(84,65)"/>
<path d="M0 0 C0.33 0 0.66 0 1 0 C1.375 2.25 1.375 2.25 1 5 C-2 7.3125 -2 7.3125 -5 9 C-3.75471468 5.55151758 -2.38532951 2.80016942 0 0 Z " fill="#B57F8B" transform="translate(74,16)"/>
<path d="M0 0 C2 3 2 3 3 6 C2.0625 9.1875 2.0625 9.1875 1 12 C-1.83022097 8.00439392 -0.76210446 4.57262677 0 0 Z " fill="#A9D6B0" transform="translate(70,54)"/>
<path d="M0 0 C0.33 0 0.66 0 1 0 C1 1.98 1 3.96 1 6 C-0.98 6 -2.96 6 -5 6 C-3.35830472 3.97945196 -1.69088222 1.97956942 0 0 Z " fill="#000000" transform="translate(177,117)"/>
<path d="M0 0 C1.65 0 3.3 0 5 0 C5.33 0.66 5.66 1.32 6 2 C3.69 2.33 1.38 2.66 -1 3 C-0.67 2.01 -0.34 1.02 0 0 Z " fill="#F0C070" transform="translate(74,60)"/>
<path d="M0 0 C1.65 0.33 3.3 0.66 5 1 C4.01 1.33 3.02 1.66 2 2 C2 2.66 2 3.32 2 4 C2.66 4.33 3.32 4.66 4 5 C3.01 5.33 2.02 5.66 1 6 C1 5.01 1 4.02 1 3 C0.34 3 -0.32 3 -1 3 C-0.67 2.01 -0.34 1.02 0 0 Z " fill="#7A737B" transform="translate(43,59)"/>
<path d="M0 0 C1.98 0.495 1.98 0.495 4 1 C4 1.99 4 2.98 4 4 C2.35 3.67 0.7 3.34 -1 3 C-0.67 2.01 -0.34 1.02 0 0 Z " fill="#FDD288" transform="translate(106,29)"/>
<path d="M0 0 C1.98 0 3.96 0 6 0 C6 1.98 6 3.96 6 6 C3.97945196 4.35830472 1.97956942 2.69088222 0 1 C0 0.67 0 0.34 0 0 Z " fill="#000000" transform="translate(172,0)"/>
</svg>
