<svg width="31" height="30" viewBox="0 0 31 30" fill="none" xmlns="http://www.w3.org/2000/svg">
<g clip-path="url(#clip0_1_3482)">
<path d="M15.5482 0.516174C16.4199 0.431829 17.3254 0.667464 18.1429 1.09137L18.4876 1.28473H18.4886C20.5896 2.54741 22.3179 4.62021 23.8343 6.70465L24.471 7.59625C25.4609 9.00217 26.3248 10.4179 27.0374 11.9527L27.3333 12.6177V12.6187C28.0994 14.4147 28.7136 16.279 29.2278 18.1773L29.4427 18.9937V18.9947L29.6126 19.6734L29.6136 19.6773L29.6165 19.6871L29.7112 20.0816L29.7523 20.2545L29.7552 20.2672L29.8109 20.5054C30.323 22.7256 29.75 24.3471 28.6194 25.5718C27.4627 26.825 25.6903 27.6947 23.7708 28.2896C19.9392 29.4772 15.7564 29.4995 15.5062 29.4996H15.4935L14.6663 29.4791C13.2555 29.4206 10.2828 29.1986 7.45441 28.358C5.56658 27.7969 3.79638 26.9752 2.59113 25.7886C1.48311 24.6976 0.836863 23.2858 1.03644 21.4048L1.08722 21.022L1.0882 21.0172C1.09684 20.9603 1.10695 20.9031 1.11749 20.8443C1.13766 20.7342 1.16168 20.6206 1.18878 20.5035L1.18781 20.5025C1.24143 20.272 1.29719 20.0422 1.35284 19.8111L1.35187 19.8101L1.46027 19.3736V19.3726C1.49443 19.2362 1.52907 19.1012 1.56378 18.9654L1.66241 18.5806V18.5836C1.66356 18.5797 1.664 18.5749 1.66534 18.5699L1.6673 18.566L1.86163 17.8502L1.86456 17.8404L1.88702 17.7554L1.88898 17.7505C2.37877 16.0001 2.95719 14.2801 3.66437 12.6187C4.33421 11.0477 5.1583 9.61074 6.11163 8.19977L6.52765 7.59625C8.09125 5.37672 9.87159 3.03939 12.0667 1.56696L12.511 1.28473C13.3574 0.775449 14.326 0.46119 15.265 0.503479L15.4515 0.516174L15.5003 0.521057L15.5482 0.516174ZM1.65656 18.6021L1.65753 18.6002L1.65851 18.5972C1.65777 18.5995 1.65678 18.6014 1.65656 18.6021Z" fill="url(#paint0_radial_1_3482)" stroke="white"/>
<circle cx="19.5001" cy="8.00006" r="1.5" fill="#D7D9FF" stroke="white"/>
<path d="M1.65729 18.5967C1.65697 18.5977 1.65752 18.5989 1.65729 18.5996L1.65826 18.5967C1.65922 18.5937 1.66061 18.5893 1.66217 18.584C1.66329 18.5802 1.66379 18.5752 1.6651 18.5703L1.66705 18.5664C1.71613 18.3795 1.76688 18.1933 1.81842 18.0078C2.65526 17.3728 3.56901 16.6202 4.34381 15.835C5.06917 15.0998 5.71362 14.2972 6.03522 13.5078L6.09479 13.3506C6.46981 12.2875 6.91302 11.7164 7.33014 11.4287C7.73208 11.1515 8.1652 11.0994 8.62799 11.1973C9.10536 11.2983 9.60279 11.5582 10.0723 11.8906C10.4214 12.1378 10.7403 12.4143 11.0069 12.6689L11.2549 12.9141C11.7849 13.4556 12.5998 13.5954 13.2715 13.2559L13.4044 13.1816C14.0915 12.7544 14.9912 11.9777 15.8809 10.5811L16.0587 10.293C16.5744 9.43317 17.6 9.07334 18.4942 9.40625L18.671 9.48242C20.3721 10.3131 23.2496 12.4029 27.9258 17.3867L28.8848 18.4219C29.0958 18.653 29.2895 18.8802 29.4688 19.1016L29.6124 19.6738L29.6133 19.6768L29.6163 19.6875L29.711 20.082L29.752 20.2549L29.7549 20.2676L29.8106 20.5049C30.3229 22.7251 29.7497 24.3464 28.6192 25.5713C27.4624 26.8245 25.6901 27.6951 23.7706 28.29C19.939 29.4776 15.7562 29.5 15.5059 29.5H15.4932L14.6661 29.4785C13.2552 29.4201 10.2826 29.199 7.45416 28.3584C5.56615 27.7973 3.79616 26.9748 2.59088 25.7881C1.48275 24.697 0.836419 23.2856 1.03619 21.4043L1.08698 21.0225L1.08795 21.0176C1.09663 20.9604 1.10665 20.9028 1.11725 20.8438C1.13739 20.7339 1.16149 20.6208 1.18854 20.5039L1.18756 20.5029C1.2412 20.2723 1.29693 20.0427 1.3526 19.8115L1.35162 19.8105L1.46002 19.373L1.56354 18.9648L1.65729 18.5967ZM1.65729 18.5967C1.65786 18.5948 1.65945 18.5924 1.66022 18.5898C1.66096 18.5873 1.66129 18.5843 1.66217 18.5811L1.65729 18.5967Z" fill="#8589EB" stroke="white"/>
<path opacity="0.15" d="M11.2794 19.8376C13.1468 18.1509 15.3931 17.9108 17.4278 18.3933C19.3536 18.85 21.0345 19.9439 21.9366 20.9958L22.1065 21.2058C22.8105 22.1283 23.8764 22.4576 24.9044 22.5124C25.9325 22.5672 26.9962 22.3531 27.8174 22.113V22.114C27.9652 22.0709 28.1128 22.0241 28.2598 21.9743L28.6983 21.8132H28.6993C28.9731 21.7039 29.2447 21.5788 29.5098 21.4333L29.5108 21.4343C29.5674 21.4036 29.6249 21.3697 29.6827 21.3357L29.6837 21.3366C29.7679 21.2873 29.8512 21.235 29.9337 21.1814C30.1947 23.06 29.6318 24.475 28.6192 25.572C27.4624 26.8252 25.6901 27.6948 23.7706 28.2898C19.939 29.4773 15.7562 29.4997 15.5059 29.4997H15.4932L14.6661 29.4792C13.2552 29.4208 10.2826 29.1987 7.45416 28.3581C5.56632 27.7971 3.79613 26.9754 2.59088 25.7888C1.48285 24.6978 0.836587 23.286 1.03619 21.405L1.08698 21.0222L1.08795 21.0173C1.09659 20.9604 1.10671 20.9032 1.11725 20.8445C1.13742 20.7344 1.16143 20.6207 1.18854 20.5036L1.18756 20.5027C1.24118 20.2722 1.29695 20.0424 1.3526 19.8112L1.35162 19.8103C1.3608 19.7726 1.37081 19.7353 1.37994 19.698C1.8676 19.6566 2.32872 19.7791 2.71295 20.2126L2.80377 20.323L2.80573 20.3249L3.00592 20.5759C3.35728 20.9999 3.75387 21.3902 4.20807 21.697V21.698C4.45194 21.8629 4.71328 22.004 4.99323 22.113L5.27936 22.2107C5.98139 22.4193 6.7615 22.4159 7.62701 22.1482L7.62799 22.1491C8.56756 21.8594 9.60544 21.2578 10.7715 20.28L11.2794 19.8376Z" fill="white" stroke="white"/>
<path opacity="0.15" d="M1.75299 18.2489C1.8983 18.3117 2.04484 18.3895 2.18951 18.4911L2.30573 18.5771C2.74152 18.9191 3.18487 19.4734 3.58698 20.3446L3.75592 20.7382L3.7569 20.7392C3.79423 20.8312 3.83096 20.9263 3.86725 21.0243L3.97467 21.328L3.97565 21.3329L4.01959 21.4579C4.44669 22.6749 5.2007 24.0947 6.57721 24.6952V24.6942C6.64611 24.7245 6.71605 24.7528 6.78717 24.7782L7.00397 24.8476C7.90018 25.1012 8.82827 24.9735 9.66412 24.6786C10.397 24.42 11.0853 24.0242 11.6651 23.6015L11.9063 23.4189C12.1058 23.2629 12.303 23.0933 12.4805 22.9452C12.5723 22.8687 12.6615 22.7954 12.7501 22.7265L13.0157 22.5321H13.0167C14.1443 21.7705 15.4325 21.9314 16.7149 22.5946C17.8395 23.1764 18.885 24.1126 19.6505 24.9843L19.961 25.3524C20.0335 25.4426 20.1051 25.5345 20.1768 25.6269V25.6259C20.4746 26.0116 20.7892 26.3276 21.1212 26.5722V26.5732C21.8628 27.1226 22.6574 27.2967 23.4522 27.1776C24.2287 27.0612 24.9732 26.6708 25.6583 26.1503C27.0247 25.1121 28.2829 23.4595 29.2589 21.955L29.2579 21.954C29.4128 21.7168 29.5603 21.4829 29.6993 21.2558L29.6983 21.2548C29.766 21.1448 29.8313 21.0358 29.8956 20.9286C30.2455 22.9338 29.6767 24.4265 28.6192 25.5722C27.4624 26.8253 25.6901 27.695 23.7706 28.2899C19.939 29.4775 15.7562 29.4999 15.5059 29.4999H15.4932L14.6661 29.4794C13.2552 29.421 10.2826 29.1989 7.45416 28.3583C5.56633 27.7972 3.79614 26.9755 2.59088 25.789C1.48286 24.698 0.836608 23.2862 1.03619 21.4052L1.08698 21.0224L1.08795 21.0175C1.09659 20.9606 1.10671 20.9034 1.11725 20.8446C1.13742 20.7345 1.16143 20.6209 1.18854 20.5038L1.18756 20.5028C1.24119 20.2723 1.29695 20.0426 1.3526 19.8114L1.35162 19.8105L1.46002 19.3739V19.373C1.49419 19.2365 1.52882 19.1016 1.56354 18.9657L1.66217 18.581V18.5839C1.66332 18.58 1.66376 18.5753 1.6651 18.5702L1.66705 18.5663C1.69492 18.4602 1.7244 18.3546 1.75299 18.2489ZM1.65631 18.6024L1.65729 18.6005L1.65826 18.5976C1.65754 18.5998 1.65655 18.6017 1.65631 18.6024Z" fill="white" stroke="white"/>
<path opacity="0.15" d="M29.8184 20.5467C30.3142 22.746 29.7428 24.3548 28.6192 25.5721C27.4624 26.8253 25.69 27.6949 23.7706 28.2899C19.939 29.4774 15.7562 29.4998 15.5059 29.4998H15.4932L14.6661 29.4793C13.2552 29.4209 10.2826 29.1988 7.45416 28.3582C5.56634 27.7972 3.79614 26.9755 2.59088 25.7889C1.45368 24.6692 0.804897 23.2118 1.05573 21.2557C1.70378 20.9045 2.52453 20.6131 3.30377 20.7479V20.7489C3.4746 20.7789 3.64412 20.8293 3.81061 20.9041L3.97565 20.9872H3.97662C4.27718 21.1543 4.58435 21.4175 4.87701 21.8211L5.00201 22.0038C5.14282 22.2209 5.28014 22.4732 5.41022 22.7655L5.53717 23.0721C5.71842 23.537 5.95754 23.9886 6.25983 24.3885L6.39362 24.5565C6.94415 25.2172 7.69093 25.7128 8.63971 25.8202L8.83307 25.8358C10.4143 25.9238 11.8152 25.0833 12.9229 24.3192L12.9219 24.3182C13.4551 23.9507 13.9438 23.8546 14.419 23.9032C14.9138 23.9538 15.4277 24.1658 15.9922 24.4793C16.5774 24.8044 17.1064 25.1706 17.7501 25.5555C18.2851 25.8754 18.8601 26.1817 19.4717 26.3739L19.7364 26.4491C20.3171 26.596 20.8767 26.6656 21.4141 26.6707V26.6698C24.5024 26.7018 26.7253 24.6075 27.963 23.0321L27.962 23.0311C28.2927 22.6102 28.5615 22.2185 28.7637 21.8983L28.9434 21.6043C29.0349 21.4502 29.105 21.3249 29.1524 21.2372C29.1759 21.1936 29.1936 21.1588 29.2061 21.1346C29.2087 21.1295 29.2108 21.1241 29.213 21.12C29.2144 21.1177 29.2167 21.1154 29.2188 21.1122C29.2275 21.0987 29.2414 21.0767 29.2608 21.0497C29.3001 20.9949 29.359 20.9194 29.4337 20.8407C29.5472 20.721 29.6789 20.6152 29.8184 20.5467Z" fill="white" stroke="white"/>
<path opacity="0.15" d="M2.64166 18.6836C3.23368 18.651 3.7726 18.7396 4.22272 18.9893C4.60938 19.2038 4.96432 19.5553 5.23639 20.124L5.34772 20.3809C5.73708 21.3769 6.46116 21.8955 7.34088 22.1504V22.1514C7.68919 22.2527 8.06127 22.3128 8.44537 22.3486L8.83307 22.377C9.66205 22.4231 10.3891 22.1413 11.0274 21.8232C11.3431 21.666 11.6633 21.4861 11.9542 21.3301C12.1786 21.2097 12.3941 21.0986 12.6075 21.0039L12.8204 20.9141C15.5956 19.8283 17.273 20.1801 18.546 20.8564C19.2086 21.2086 19.7754 21.6554 20.3663 22.1055C20.8691 22.4885 21.3984 22.8808 21.9854 23.1514L22.2413 23.2598C24.512 24.1355 26.2597 23.949 27.5635 23.2939L27.8184 23.1572C28.3829 22.8332 28.8427 22.4292 29.212 22.0156L29.211 22.0146C29.401 21.8033 29.5683 21.5902 29.713 21.3828L29.8506 21.1768L29.8516 21.1758C29.8746 21.1401 29.8953 21.1035 29.9171 21.0684C30.2171 23.0035 29.6521 24.4533 28.6192 25.5723C27.4624 26.8254 25.69 27.6951 23.7706 28.29C19.939 29.4776 15.7562 29.5 15.5059 29.5H15.4932L14.6661 29.4795C13.2552 29.4211 10.2826 29.199 7.45416 28.3584C5.56635 27.7973 3.79614 26.9756 2.59088 25.7891C1.48289 24.6981 0.836648 23.2862 1.03619 21.4053L1.08698 21.0225L1.08795 21.0176C1.09659 20.9607 1.10671 20.9035 1.11725 20.8447C1.13742 20.7346 1.16143 20.621 1.18854 20.5039L1.18756 20.5029C1.2412 20.2724 1.29694 20.0427 1.3526 19.8115L1.35162 19.8105L1.46002 19.374V19.373L1.56354 18.9648C1.57358 18.9256 1.58287 18.8865 1.59283 18.8477C1.83404 18.7882 2.07589 18.7422 2.31451 18.7129L2.64166 18.6836ZM1.66022 18.5908C1.65894 18.5952 1.65791 18.5987 1.65729 18.6006L1.65631 18.6025C1.65652 18.6019 1.65746 18.5992 1.65826 18.5967L1.66217 18.584C1.6615 18.5864 1.66079 18.5889 1.66022 18.5908Z" fill="white" stroke="white"/>
</g>
<defs>
<radialGradient id="paint0_radial_1_3482" cx="0" cy="0" r="1" gradientUnits="userSpaceOnUse" gradientTransform="translate(15.4999 14.9998) scale(14.9075 15.0942)">
<stop offset="2.23767e-07" stop-color="#CFCFFA"/>
<stop offset="1" stop-color="#767FF7"/>
</radialGradient>
<clipPath id="clip0_1_3482">
<rect width="30" height="30" fill="white" transform="translate(0.5)"/>
</clipPath>
</defs>
</svg>
