<svg width="153" height="142" viewBox="0 0 153 142" fill="none" xmlns="http://www.w3.org/2000/svg">
<path d="M98.2922 161.498C87.703 100.751 34.8998 55.7983 -26.7787 55.0258C-33.6038 54.94 -39.235 49.6629 -39.7793 42.8589L-42.0056 15.1016C-42.6212 7.40347 -36.5386 0.841198 -28.8117 0.815523C-9.1131 0.752939 10.2853 3.8471 29.0252 10.0598C51.4768 17.5028 72.026 29.077 90.1051 44.4667C108.184 59.8564 122.889 78.2939 133.813 99.2643C142.931 116.772 149.08 135.418 152.155 154.87C153.36 162.498 147.848 169.549 140.147 170.168L112.38 172.394C105.573 172.938 99.4616 168.219 98.2922 161.498Z" fill="#1F265E"/>
</svg>
