<svg width="178" height="124" viewBox="0 0 178 124" fill="none" xmlns="http://www.w3.org/2000/svg">
<mask id="mask0_3_432" style="mask-type:alpha" maskUnits="userSpaceOnUse" x="0" y="0" width="178" height="124">
<rect x="0.0256348" y="0.545166" width="177" height="122.927" rx="10" fill="#AFDBC5"/>
</mask>
<g mask="url(#mask0_3_432)">
<path d="M177.023 -3.16992H-6.66736V178.912H177.023V-3.16992Z" fill="#554A96"/>
<path d="M150.248 103.264C165.575 71.8537 148.865 32.4226 112.926 15.1922C76.9868 -2.03822 35.4278 9.45689 20.1013 40.8672C4.7748 72.2776 21.4846 111.709 57.4237 128.939C93.3628 146.17 134.922 134.674 150.248 103.264Z" fill="#3B3283"/>
<path d="M166.145 16.564C164.879 15.3022 163.158 14.7469 161.6 15.0783C162.592 13.9548 162.738 12.1413 161.905 10.8394C161.059 9.51384 159.288 8.811 157.695 9.1697C156.389 9.46286 155.289 10.335 154.716 11.4803C154.85 10.5481 154.841 9.40641 154.387 8.29025C153.836 6.93556 152.693 5.92319 151.402 5.64824C149.828 5.31321 147.996 6.11619 146.946 7.6038C146.271 8.55791 145.821 9.77968 145.658 11.047C145.408 10.1748 144.822 9.37364 144.018 8.89294C142.822 8.17918 141.203 8.15733 139.894 8.83467C138.674 9.4665 137.719 10.6883 137.339 12.1067C137.013 13.323 137.091 14.6485 137.561 15.9595C136.427 14.9945 135.237 14.0695 133.641 14.3499C132.572 14.5375 131.688 15.1893 131.218 16.138C130.75 17.0812 130.768 18.1645 131.266 19.1114C132.107 20.71 133.828 21.7079 136.525 22.1612C138.391 22.4744 140.313 22.4945 142.17 22.5127C142.515 22.5163 142.859 22.5199 143.204 22.5254C143.476 22.529 143.716 22.5345 143.939 22.5418C145.461 22.5891 146.986 22.6201 148.468 22.6328C149.106 22.6383 149.74 22.6419 150.375 22.6419C152.68 22.6419 154.962 22.6019 157.183 22.5236C157.732 22.5036 158.29 22.4744 158.83 22.4471C159.628 22.4052 160.451 22.3634 161.261 22.3506C162.624 22.3269 163.841 22.2668 164.951 21.7752C165.91 21.3492 167.192 20.619 167.278 19.1969C167.333 18.2956 166.92 17.3361 166.145 16.564Z" fill="#6F74C5"/>
<path d="M174.938 45.3277C174.06 44.4537 172.87 44.0695 171.79 44.299C172.477 43.5196 172.578 42.2651 172.001 41.362C171.415 40.4443 170.188 39.9563 169.086 40.2039C168.18 40.4079 167.42 41.0106 167.021 41.8044C167.113 41.158 167.108 40.3678 166.794 39.594C166.413 38.6562 165.62 37.9552 164.725 37.764C163.636 37.531 162.367 38.0881 161.639 39.1187C161.173 39.7797 160.86 40.6264 160.746 41.504C160.574 40.8995 160.168 40.3441 159.611 40.0128C158.783 39.5193 157.662 39.5029 156.755 39.9727C155.91 40.4097 155.249 41.2564 154.986 42.2396C154.76 43.0826 154.813 44.0003 155.14 44.9089C154.356 44.2407 153.531 43.5998 152.425 43.7946C151.685 43.9239 151.073 44.3754 150.746 45.0327C150.423 45.6864 150.434 46.4366 150.779 47.0921C151.362 48.1991 152.554 48.8911 154.422 49.2042C155.715 49.4209 157.045 49.4355 158.333 49.4482C158.572 49.45 158.81 49.4537 159.049 49.4573C159.238 49.461 159.404 49.4646 159.558 49.4683C160.612 49.501 161.669 49.5229 162.695 49.532C163.136 49.5356 163.577 49.5374 164.016 49.5374C165.612 49.5374 167.194 49.5101 168.731 49.4555C169.112 49.4428 169.499 49.4227 169.872 49.4027C170.423 49.3736 170.995 49.3444 171.555 49.3353C172.499 49.3189 173.342 49.2771 174.11 48.9366C174.773 48.6416 175.662 48.1354 175.723 47.1504C175.761 46.5258 175.475 45.8612 174.938 45.3277Z" fill="#93A1ED"/>
<path d="M13.8932 82.2065C13.2393 81.5565 12.352 81.2688 11.5493 81.4399C12.0618 80.8591 12.1353 79.925 11.7073 79.2531C11.2701 78.5685 10.3572 78.2062 9.53607 78.3919C8.86192 78.543 8.29432 78.9928 7.99858 79.5845C8.06838 79.1038 8.06287 78.5139 7.82958 77.9385C7.54486 77.2393 6.95522 76.7167 6.29025 76.5747C5.47834 76.4017 4.53234 76.8169 3.99045 77.5834C3.64327 78.0751 3.40999 78.7069 3.32549 79.3606C3.1969 78.9108 2.89381 78.4975 2.47867 78.2499C1.86147 77.8821 1.02752 77.8711 0.351534 78.2207C-0.278525 78.5467 -0.770815 79.1767 -0.967365 79.9086C-1.13636 80.535 -1.09595 81.2196 -0.85164 81.897C-1.43578 81.3999 -2.05114 80.921 -2.87407 81.0667C-3.42515 81.1632 -3.8807 81.5 -4.12501 81.9898C-4.36564 82.476 -4.35829 83.035 -4.10113 83.523C-3.66762 84.3478 -2.78039 84.8631 -1.38802 85.0961C-0.425477 85.2582 0.566453 85.2673 1.52532 85.2782C1.7035 85.28 1.88168 85.2819 2.05802 85.2837C2.19946 85.2855 2.32254 85.2891 2.43642 85.2928C3.22262 85.3165 4.00882 85.3328 4.77297 85.3401C5.10178 85.3438 5.42875 85.3456 5.75571 85.3456C6.94419 85.3456 8.12165 85.3256 9.26788 85.2837C9.55076 85.2728 9.83916 85.2582 10.1184 85.2436C10.5298 85.2218 10.9542 85.1999 11.3711 85.1926C12.0747 85.1799 12.7029 85.1508 13.2742 84.8959C13.7683 84.6755 14.4314 84.2986 14.4755 83.5667C14.5049 83.1005 14.2918 82.6053 13.8932 82.2065Z" fill="#93A1ED"/>
<path d="M175.188 90.9626C174.56 90.3381 173.708 90.0613 172.936 90.227C173.429 89.6698 173.5 88.7722 173.087 88.1258C172.668 87.4685 171.79 87.1207 171.002 87.2973C170.354 87.443 169.81 87.8745 169.525 88.4426C169.591 87.9801 169.588 87.4138 169.362 86.8621C169.09 86.1903 168.522 85.6895 167.883 85.553C167.104 85.3873 166.195 85.7842 165.675 86.5216C165.341 86.9951 165.118 87.5996 165.036 88.2278C164.913 87.7962 164.622 87.3975 164.224 87.1608C163.632 86.8075 162.83 86.7966 162.181 87.1316C161.577 87.4448 161.103 88.0511 160.916 88.7521C160.754 89.3548 160.793 90.0122 161.026 90.6622C160.464 90.1851 159.874 89.7263 159.084 89.8647C158.555 89.9575 158.116 90.2798 157.883 90.7514C157.651 91.2194 157.659 91.7547 157.907 92.2245C158.324 93.0165 159.176 93.5118 160.513 93.7357C161.437 93.8905 162.391 93.9014 163.311 93.9105C163.482 93.9124 163.653 93.9142 163.823 93.916C163.959 93.9178 164.077 93.9215 164.187 93.9233C164.942 93.9469 165.697 93.9615 166.432 93.9688C166.748 93.9724 167.062 93.9724 167.376 93.9724C168.519 93.9724 169.648 93.9524 170.749 93.9142C171.02 93.9051 171.298 93.8905 171.566 93.8759C171.961 93.8559 172.369 93.8341 172.769 93.8286C173.445 93.8177 174.048 93.7867 174.597 93.5427C175.071 93.3315 175.708 92.9692 175.75 92.2645C175.778 91.8202 175.572 91.3468 175.188 90.9626Z" fill="#93A1ED"/>
<path d="M16.6726 44.1896C16.0058 43.5268 15.1002 43.2336 14.281 43.4084C14.8027 42.8167 14.8798 41.8626 14.4426 41.1779C13.9981 40.4806 13.065 40.1109 12.2273 40.2985C11.5403 40.4532 10.9617 40.9121 10.6586 41.5148C10.7284 41.0232 10.7247 40.4223 10.4859 39.836C10.1957 39.124 9.59504 38.5905 8.91538 38.4449C8.08694 38.2683 7.12256 38.6907 6.56965 39.4736C6.21513 39.9762 5.97817 40.6189 5.89183 41.2854C5.76141 40.8265 5.45281 40.4041 5.02849 40.151C4.40026 39.7759 3.54794 39.7632 2.8591 40.12C2.21802 40.4514 1.71471 41.096 1.51448 41.8425C1.34365 42.4816 1.38406 43.1808 1.63205 43.8709C1.03505 43.3629 0.408665 42.8767 -0.430801 43.0242C-0.992894 43.1226 -1.45763 43.4667 -1.70561 43.9656C-1.95176 44.4609 -1.94258 45.0326 -1.6799 45.5297C-1.2372 46.3709 -0.331608 46.8953 1.08832 47.1356C2.07107 47.3013 3.08136 47.3104 4.0586 47.3214C4.24045 47.3232 4.42047 47.325 4.60232 47.3268C4.7456 47.3286 4.87235 47.3323 4.98991 47.3359C5.7908 47.3614 6.59353 47.376 7.37422 47.3851C7.70853 47.3887 8.04285 47.3906 8.37717 47.3906C9.58953 47.3906 10.7909 47.3687 11.9591 47.3286C12.2475 47.3177 12.5414 47.3032 12.8262 47.2886C13.245 47.2667 13.6785 47.2449 14.1046 47.2376C14.821 47.2249 15.464 47.1939 16.0463 46.9353C16.5496 46.7114 17.2255 46.3272 17.2715 45.5788C17.299 45.1 17.0804 44.5956 16.6726 44.1896Z" fill="#93A1ED"/>
<path d="M36.9942 126.066C35.6055 124.683 33.7171 124.073 32.0088 124.437C33.0962 123.204 33.2561 121.214 32.3449 119.785C31.4173 118.33 29.4739 117.559 27.727 117.951C26.2923 118.273 25.0873 119.229 24.4573 120.487C24.6042 119.464 24.5932 118.211 24.0972 116.988C23.4929 115.502 22.2383 114.391 20.822 114.089C19.0953 113.721 17.0858 114.602 15.9322 116.234C15.1919 117.281 14.6996 118.621 14.5178 120.012C14.2441 119.054 13.6011 118.175 12.7176 117.649C11.406 116.866 9.62975 116.842 8.19329 117.585C6.85602 118.277 5.80715 119.619 5.39017 121.176C5.03197 122.51 5.11831 123.965 5.63448 125.404C4.39089 124.346 3.08485 123.33 1.33428 123.637C0.160496 123.843 -0.807554 124.559 -1.32372 125.598C-1.83806 126.633 -1.81785 127.822 -1.27229 128.861C-0.350164 130.615 1.53818 131.709 4.49927 132.208C6.54742 132.552 8.65435 132.574 10.6933 132.594C11.0717 132.598 11.4501 132.601 11.8267 132.607C12.1261 132.61 12.3888 132.618 12.6331 132.625C14.3028 132.676 15.9763 132.71 17.6038 132.725C18.3018 132.732 18.9998 132.734 19.6942 132.734C22.2236 132.734 24.7273 132.69 27.163 132.603C27.7655 132.581 28.3791 132.55 28.9705 132.519C29.8449 132.474 30.7487 132.428 31.6359 132.412C33.1311 132.386 34.4684 132.321 35.6844 131.78C36.7351 131.312 38.1441 130.511 38.2377 128.952C38.2984 127.965 37.8446 126.915 36.9942 126.066Z" fill="#93A1ED"/>
<path d="M31.4632 10.4571C30.2251 9.22444 28.5444 8.68001 27.0216 9.00412C27.9915 7.90435 28.1329 6.13269 27.321 4.85994C26.4944 3.56352 24.7622 2.87707 23.2063 3.22667C21.9278 3.51436 20.8532 4.36468 20.293 5.4863C20.4234 4.57407 20.4142 3.45791 19.9715 2.36724C19.4333 1.04351 18.3146 0.0529815 17.0527 -0.214679C15.5152 -0.542426 13.7224 0.242347 12.6955 1.69718C12.0361 2.62944 11.5971 3.82389 11.4354 5.06205C11.1911 4.20991 10.618 3.42514 9.8318 2.95719C8.66352 2.25981 7.08011 2.23796 5.79979 2.90074C4.60763 3.518 3.67449 4.71427 3.30159 6.09992C2.98381 7.28891 3.05912 8.58533 3.52019 9.86719C2.41253 8.924 1.24793 8.01906 -0.311602 8.294C-1.3568 8.4779 -2.22015 9.11519 -2.67937 10.042C-3.13676 10.9633 -3.12023 12.023 -2.63345 12.948C-1.81052 14.5103 -0.129748 15.4862 2.50805 15.9305C4.3321 16.2382 6.21125 16.2564 8.02612 16.2746C8.36227 16.2783 8.70026 16.2819 9.03642 16.2856C9.30277 16.2892 9.53789 16.2947 9.75465 16.302C11.2425 16.3475 12.7323 16.3784 14.1834 16.3912C14.8061 16.3966 15.427 16.4003 16.0461 16.4003C18.2981 16.4003 20.5299 16.362 22.7012 16.2837C23.2375 16.2637 23.7849 16.2364 24.3121 16.2091C25.091 16.169 25.8955 16.1272 26.6873 16.1144C28.019 16.0907 29.2112 16.0325 30.2949 15.5518C31.2318 15.1348 32.4864 14.4211 32.5709 13.0318C32.626 12.1487 32.2219 11.2109 31.4632 10.4571Z" fill="#6F74C5"/>
<path d="M133.221 74.1313C129.337 70.2639 124.062 68.5578 119.286 69.5756C122.328 66.1288 122.77 60.568 120.223 56.575C117.627 52.5091 112.199 50.3532 107.315 51.453C103.307 52.3543 99.9359 55.0255 98.1761 58.5396C98.5858 55.6809 98.5582 52.1777 97.1677 48.7582C95.4796 44.6049 91.9729 41.5004 88.0125 40.6574C83.187 39.6286 77.5679 42.094 74.3478 46.6515C72.2794 49.5776 70.8999 53.3248 70.3966 57.2086C69.6325 54.5338 67.8341 52.0757 65.3672 50.6045C61.7007 48.4177 56.7374 48.3485 52.7219 50.4279C48.982 52.3634 46.0539 56.1143 44.8875 60.4606C43.8882 64.1896 44.1252 68.2573 45.5708 72.2759C42.0954 69.3189 38.4455 66.4802 33.5519 67.3396C30.2731 67.915 27.5655 69.9143 26.1217 72.8221C24.687 75.7136 24.7403 79.0366 26.2686 81.9389C28.8476 86.8406 34.1232 89.8995 42.3966 91.2925C48.1186 92.2557 54.0096 92.314 59.7077 92.3704C60.7639 92.3813 61.8219 92.3922 62.8763 92.4068C63.7121 92.4196 64.4487 92.4359 65.1302 92.456C69.7996 92.5998 74.4727 92.6945 79.0209 92.7382C80.9735 92.7564 82.9225 92.7655 84.8659 92.7655C91.9325 92.7655 98.933 92.6435 105.742 92.3995C107.427 92.3394 109.139 92.252 110.796 92.1665C113.239 92.0408 115.765 91.9116 118.246 91.8679C122.425 91.7968 126.163 91.6129 129.562 90.1017C132.499 88.7943 136.435 86.5529 136.698 82.1957C136.867 79.439 135.599 76.4983 133.221 74.1313Z" fill="#74C7E5"/>
<path d="M72.0407 67.3379C71.6861 67.378 71.4327 67.6966 71.4731 68.0462C71.5998 69.1405 71.0377 70.3223 70.1027 70.9195C69.1696 71.5167 67.8507 71.5386 66.8973 70.9723C65.944 70.406 65.3415 69.2443 65.4333 68.1464C65.4627 67.795 65.1982 67.4854 64.8437 67.4563C64.4855 67.4253 64.1769 67.6894 64.1475 68.0408C64.0869 68.7636 64.2301 69.492 64.5314 70.1493C64.221 70.6027 63.8168 70.9941 63.3503 71.2818C63.2492 71.3437 63.218 71.4748 63.2805 71.575C63.3209 71.6405 63.3907 71.6751 63.4642 71.6751C63.5027 71.6751 63.5431 71.6642 63.578 71.6423C64.0299 71.3638 64.4304 70.996 64.7537 70.5735C65.0733 71.1107 65.5086 71.5804 66.0285 71.9355C65.8429 72.3379 65.5343 72.6875 65.1468 72.906C65.0439 72.9643 65.0072 73.0935 65.0659 73.1973C65.1045 73.2665 65.178 73.3048 65.2533 73.3048C65.29 73.3048 65.3249 73.2957 65.3598 73.2774C65.8117 73.0244 66.1736 72.6238 66.3995 72.1595C67.0296 72.4963 67.7423 72.6656 68.4569 72.6656C69.2816 72.6656 70.1082 72.4417 70.8044 71.9956C72.1564 71.1307 72.9408 69.4865 72.7571 67.9006C72.7166 67.5491 72.3952 67.2979 72.0407 67.3379Z" fill="#231F20"/>
<path d="M99.3571 71.2818C98.8905 70.9941 98.4864 70.6027 98.176 70.1493C98.4772 69.492 98.6205 68.7636 98.5599 68.0426C98.5305 67.6912 98.2238 67.4308 97.8637 67.4563C97.5092 67.4854 97.2447 67.7931 97.2741 68.1464C97.3641 69.2443 96.7616 70.406 95.8101 70.9723C94.8567 71.5386 93.5396 71.5167 92.6046 70.9195C91.6715 70.3223 91.1076 69.1405 91.2343 68.0462C91.2747 67.6948 91.0212 67.378 90.6667 67.3379C90.314 67.2979 89.9926 67.5491 89.9522 67.9006C89.7685 69.4847 90.5528 71.1307 91.9048 71.9956C92.6028 72.4417 93.4276 72.6656 94.2524 72.6656C94.9669 72.6656 95.6778 72.4963 96.3097 72.1595C96.5356 72.6238 96.8975 73.0244 97.3494 73.2774C97.3824 73.2957 97.4192 73.3048 97.4559 73.3048C97.5312 73.3048 97.6047 73.2665 97.6433 73.1973C97.7021 73.0954 97.6653 72.9643 97.5625 72.906C97.1749 72.6893 96.8663 72.3397 96.6807 71.9355C97.2006 71.5823 97.6359 71.1125 97.9556 70.5735C98.2789 70.9978 98.6793 71.3638 99.133 71.6423C99.1679 71.6642 99.2083 71.6751 99.2469 71.6751C99.3186 71.6751 99.3884 71.6387 99.4306 71.575C99.4875 71.4767 99.4582 71.3456 99.3571 71.2818Z" fill="#231F20"/>
<path d="M76.2031 82.4832C75.5235 81.7276 74.3258 81.4726 73.3578 81.8805C72.3585 82.2993 71.7321 83.3663 71.9011 84.3623C72.0866 85.4566 73.1612 86.0502 74.1458 86.1521C74.2597 86.1631 74.3699 86.1704 74.4801 86.1704C75.2626 86.1704 75.9441 85.8754 76.3464 85.3492C76.9728 84.5298 76.9103 83.2716 76.2031 82.4832Z" fill="#91D9F2"/>
<path d="M67.4483 75.5715C66.3719 74.936 64.8417 74.8887 63.6294 74.9051C62.2664 74.9233 60.7399 75.1072 59.4872 75.668C58.543 76.0904 58.0048 77.0154 58.4695 78.0132C58.9894 79.1312 60.435 79.4771 61.5518 79.6137C63.3741 79.8358 67.2665 79.956 68.2382 77.9877C68.6864 77.0755 68.3117 76.0813 67.4483 75.5715Z" fill="#57B6DC"/>
<path d="M105.443 75.5715C104.367 74.936 102.836 74.8887 101.624 74.9051C100.261 74.9233 98.7347 75.1072 97.4819 75.668C96.5377 76.0904 95.9995 77.0154 96.4643 78.0132C96.9841 79.1312 98.4297 79.4771 99.5466 79.6137C101.369 79.8358 105.261 79.956 106.233 77.9877C106.679 77.0755 106.306 76.0813 105.443 75.5715Z" fill="#57B6DC"/>
<path d="M30.3465 70.0145C27.9787 70.9959 26.4321 73.6379 26.748 76.1616C27.064 78.6852 29.215 80.8738 31.7517 81.2507C31.8105 81.2599 31.8693 81.2635 31.9299 81.2635C32.5104 81.2635 33.0119 80.8338 33.0982 80.2657C33.146 79.9561 33.067 79.6466 32.8796 79.3935C32.6922 79.1422 32.4167 78.9765 32.1044 78.931C30.5798 78.7034 29.2866 77.3888 29.0956 75.8721C28.9064 74.3553 29.8358 72.7657 31.2576 72.1776C32.6812 71.5877 34.474 72.0483 35.4292 73.2483C35.6258 73.4941 35.9068 73.6488 36.2191 73.6853C36.5332 73.7217 36.8418 73.6343 37.0898 73.4413C37.3378 73.2464 37.4939 72.9679 37.5325 72.6583C37.5711 72.3488 37.4811 72.0411 37.2863 71.7952C35.6974 69.7978 32.7124 69.0331 30.3465 70.0145Z" fill="#57B6DC"/>
<path d="M55.1006 50.8723C51.9246 51.4167 49.0186 53.7127 47.5142 56.8646C46.221 59.5758 45.9124 62.9242 46.6453 66.2909C46.7629 66.8263 47.2478 67.2159 47.8007 67.2159C47.8852 67.2159 47.9697 67.2068 48.0506 67.1886C48.3592 67.123 48.6237 66.941 48.7945 66.6769C48.9653 66.4129 49.0241 66.0997 48.9561 65.7938C48.3316 62.9279 48.5777 60.1129 49.6505 57.8642C50.8298 55.3915 53.0727 53.5962 55.4992 53.1792C58.0268 52.7477 60.7528 53.9804 61.842 56.0488C61.989 56.3274 62.2351 56.5313 62.5364 56.626C62.8376 56.7207 63.1591 56.6916 63.4383 56.5477C64.0169 56.2491 64.2429 55.539 63.9398 54.9654C62.3748 51.9866 58.655 50.2641 55.1006 50.8723Z" fill="#57B6DC"/>
<path d="M91.5319 46.7044C90.5749 43.711 87.2813 41.5424 83.872 41.6662C80.8999 41.7718 77.9498 43.4415 75.977 46.1326C74.4028 48.2812 73.409 51.0616 73.0251 54.3973C72.9516 55.0401 73.4182 55.6228 74.0684 55.6956C74.1144 55.701 74.1584 55.7029 74.2025 55.7029C74.8032 55.7029 75.3083 55.2568 75.3763 54.6632C75.7143 51.7353 76.5611 49.3282 77.8929 47.5092C79.4395 45.397 81.7063 44.0879 83.9565 44.0096C86.3426 43.924 88.6296 45.3879 89.2762 47.4109C89.3717 47.7095 89.5793 47.9553 89.8603 48.0991C90.1414 48.243 90.461 48.2703 90.7604 48.1756C91.3831 47.9808 91.7285 47.3216 91.5319 46.7044Z" fill="#57B6DC"/>
<path d="M120.224 56.575C122.772 60.5681 122.327 66.127 119.287 69.5756C120.726 69.2697 122.208 69.2115 123.683 69.3826C130.287 64.2334 134.673 56.2436 135.483 47.7914C136.38 38.4488 133.606 28.7129 128.242 22.3837C122.776 15.9325 115.311 12.0469 106.054 10.8343C100.665 10.1278 94.2743 10.9708 89.772 12.9774C85.2587 14.9894 81.1936 18.6729 78.3281 23.3487C75.817 27.4456 74.1179 32.3672 73.2803 37.9735C73.2656 38.07 73.3188 38.1629 73.4088 38.2011C73.4988 38.2394 73.6036 38.2102 73.6642 38.1338C75.6113 35.5955 78.9949 33.7165 83.194 32.8388C87.2959 31.983 91.4491 32.298 94.8915 33.7274C98.6755 35.2969 101.721 38.3249 103.042 41.8264C104.467 45.6082 103.856 49.9654 101.482 52.9261C101.438 52.9825 101.423 53.0572 101.446 53.1246C101.468 53.1919 101.523 53.2447 101.592 53.2648C101.945 53.3631 102.276 53.4377 102.599 53.5087C104.004 52.5474 105.601 51.8354 107.316 51.4494C112.199 50.3551 117.629 52.5091 120.224 56.575Z" fill="#FEABD5"/>
<path d="M107.577 30.1986C107.427 29.4575 107.114 28.7729 106.835 28.1902C106.681 27.8716 106.297 27.735 105.976 27.8879C105.654 28.0409 105.518 28.4214 105.671 28.7401C105.919 29.2536 106.192 29.8526 106.314 30.4498C106.396 30.8613 106.444 31.464 106.192 32.0012C105.876 32.6767 105.094 33.1465 104.245 33.1701C103.45 33.1938 102.585 32.8424 101.881 32.2087C101.617 31.9702 101.209 31.9902 100.97 32.2506C100.729 32.5128 100.75 32.917 101.012 33.1537C101.929 33.9804 103.075 34.4483 104.174 34.4483C104.208 34.4483 104.245 34.4483 104.28 34.4465C105.606 34.4101 106.844 33.6417 107.362 32.5365C107.677 31.8664 107.75 31.058 107.577 30.1986Z" fill="#231F20"/>
<path d="M86.1937 22.9881C84.2833 22.3435 82.0625 24.3154 82.3582 26.2655C82.4758 27.0339 82.9074 27.8132 83.4989 28.3231C84.6121 29.2808 86.449 28.6963 87.3656 27.7495C88.7341 26.3347 88.0581 23.6181 86.1937 22.9881Z" fill="#FF84C7"/>
<path d="M99.1548 27.0086C98.4696 25.4209 96.8127 24.8746 95.3047 25.603C94.4505 26.0163 93.6349 26.7792 93.5357 27.7606C93.3649 29.4576 94.7113 31.4787 96.6199 30.8688C98.128 30.3844 99.8804 28.6874 99.1548 27.0086Z" fill="#FFEAA3"/>
<path d="M106.354 14.5924C106.071 14.3994 105.762 14.2428 105.443 14.1318C104.081 13.6584 102.597 13.9297 101.66 15.0458C99.8216 17.2381 101.361 20.938 104.454 20.2606C105.733 19.9802 107.265 19.2046 107.687 17.8754C108.104 16.5662 107.414 15.3189 106.354 14.5924Z" fill="#FF84C7"/>
<path d="M127.478 24.8327C127.227 24.1116 126.602 23.5618 125.889 23.3068C124.203 22.7023 122.493 23.8039 122.043 25.4627C121.762 26.4987 122.085 27.7442 123.119 28.2613C124.354 28.8785 125.814 28.2048 126.705 27.2981C127.372 26.6226 127.811 25.7868 127.478 24.8327Z" fill="#FF84C7"/>
<path d="M129.151 34.962C126.773 34.88 124.563 36.6444 124.754 39.1116C124.756 39.1353 124.761 39.1571 124.767 39.1808C124.767 39.4794 124.829 39.7853 124.98 40.0949C125.443 41.049 126.385 41.7937 127.364 42.1742C129.545 43.0264 131.984 42.2198 132.349 39.7689C132.689 37.4911 131.78 35.0512 129.151 34.962Z" fill="#FFEAA3"/>
<path d="M115.178 43.8837C113.887 43.7216 112.634 44.8596 112.081 45.9248C111.537 46.9718 111.868 48.2536 112.772 48.9929C114.179 50.1454 116.333 49.479 117.153 48.0952C118.225 46.7132 117.224 44.1386 115.178 43.8837Z" fill="#FFEAA3"/>
<path d="M129.141 52.8752C128.156 51.3238 126.339 51.3311 124.951 52.4036C123.902 53.2138 123.22 54.6377 123.727 55.9287C124.203 57.1432 125.509 57.8005 126.773 57.8296C129.549 57.8934 130.43 54.9072 129.141 52.8752Z" fill="#FFEAA3"/>
<path d="M115.766 28.8528C113.472 28.9439 111.918 30.9777 110.755 32.7476C110.456 33.1281 110.237 33.5615 110.191 34.0658C110.112 34.9253 110.575 35.7246 111.387 36.0487C113.209 36.777 115.461 34.6612 116.398 33.332C117.204 32.1867 118.207 28.7563 115.766 28.8528Z" fill="#FFEAA3"/>
<path d="M97.6305 13.8604C97.4321 13.1412 96.5173 12.9737 95.9902 12.9391C87.9923 12.4092 80.7548 19.9274 77.4172 27.1378C76.8716 28.3177 76.4822 29.503 76.2636 30.6647L76.2507 30.7303C76.1166 31.4331 75.966 32.2306 75.9109 32.9389C75.8889 33.2193 75.9477 33.4888 76.0762 33.6982C76.1277 33.782 76.1901 33.8566 76.2618 33.9167C76.4069 34.0405 76.5667 34.1024 76.7412 34.1024C76.789 34.1024 76.8367 34.097 76.8863 34.0879C77.509 33.9695 78.1079 33.1174 78.3375 32.684C78.793 31.8228 79.1163 30.8887 79.4286 29.9874C79.5498 29.6378 79.6711 29.2882 79.7996 28.9422C81.1883 25.2059 83.31 22.1597 86.1058 19.8891C88.637 17.8334 91.7671 16.6554 94.7723 15.6885C94.8715 15.6557 95.0148 15.6193 95.1837 15.5756C95.9369 15.379 97.197 15.0476 97.5589 14.4285C97.6599 14.2501 97.6856 14.0589 97.6305 13.8604Z" fill="#CA6CAA"/>
<path d="M99.9377 12.1251C99.6162 11.9394 99.236 11.9522 98.8962 12.0796C98.7088 12.1506 98.5508 12.2453 98.4461 12.4238C98.0365 13.1193 99.045 14.0661 99.7411 13.8968C100.081 13.8149 100.358 13.5527 100.441 13.214C100.549 12.777 100.316 12.3436 99.9377 12.1251Z" fill="#CA6CAA"/>
<path d="M135.561 46.859C135.581 46.5568 135.599 46.2527 135.612 45.9504C135.45 46.1198 135.314 46.3292 135.221 46.5859C133.702 50.6718 131.365 54.4682 128.371 57.6565C127.081 59.0294 125.685 60.2821 124.227 61.4638C124.46 61.2744 123.533 59.0731 123.402 58.7599C123.015 57.8295 122.528 56.9391 121.955 56.1051C120.829 54.4682 119.37 53.0535 117.686 51.9865C114.161 49.7523 110.079 49.3554 106.143 50.6554C105.095 51.0014 104.144 51.4657 103.277 52.1649C102.816 52.2159 102.359 52.2796 101.907 52.3561C101.773 52.5527 101.629 52.7439 101.48 52.9296C101.436 52.9861 101.422 53.0607 101.444 53.1281C101.466 53.1955 101.521 53.2483 101.591 53.2683C101.943 53.3666 102.274 53.4413 102.597 53.5123C104.003 52.5509 105.599 51.839 107.314 51.453C112.199 50.355 117.627 52.509 120.222 56.5749C122.357 59.9198 122.39 64.3644 120.557 67.7475C120.557 67.7475 120.557 67.7493 120.555 67.7493C120.487 67.8731 120.417 67.9951 120.345 68.1171C120.34 68.1244 120.336 68.1335 120.331 68.1408C120.263 68.2536 120.193 68.3629 120.121 68.4721C120.11 68.4885 120.101 68.5049 120.09 68.5195C120.024 68.6196 119.954 68.7198 119.883 68.8181C119.866 68.8399 119.851 68.8636 119.835 68.8855C119.767 68.9802 119.695 69.0712 119.624 69.1622C119.603 69.1877 119.585 69.2132 119.567 69.2369C119.475 69.3516 119.381 69.4645 119.284 69.5737C120.722 69.2678 122.204 69.2096 123.679 69.3807C130.283 64.2315 134.67 56.2417 135.48 47.7895C135.509 47.4836 135.535 47.1777 135.555 46.8718C135.561 46.8681 135.561 46.8627 135.561 46.859Z" fill="#EBCE72"/>
<path d="M38.1843 41.2418C38.0594 41.0233 37.7783 40.9469 37.5579 41.0707L31.869 44.2717L35.7651 37.1031C35.8551 36.9356 35.833 36.7317 35.7063 36.5878C35.5814 36.4458 35.3793 36.3948 35.1993 36.4604C32.6166 37.4181 30.1331 38.6563 27.8205 40.1421C27.6074 40.2786 27.5468 40.5609 27.6845 40.7721C27.8223 40.9833 28.107 41.0434 28.3201 40.9068C30.2305 39.6814 32.2584 38.6272 34.3617 37.7659L30.3021 45.2331C30.2048 45.4115 30.2397 45.6318 30.3848 45.7739C30.4729 45.8594 30.5887 45.9031 30.7062 45.9031C30.7834 45.9031 30.8624 45.8831 30.9322 45.8431L38.0098 41.8591C38.232 41.7371 38.3092 41.4603 38.1843 41.2418Z" fill="#F7E9BC"/>
<path d="M43.3774 53.5541C43.2782 53.3229 43.0082 53.2154 42.7749 53.3138C41.5791 53.8181 40.341 54.2387 39.0809 54.5701C40.1922 52.8713 41.107 51.0505 41.8087 49.1477C41.8675 48.9875 41.8307 48.8072 41.715 48.6816C41.5974 48.556 41.4193 48.5068 41.2539 48.5523C39.1213 49.1459 37.0823 50.0272 35.1921 51.1725C34.9754 51.3036 34.9074 51.584 35.0397 51.7988C35.1719 52.0137 35.4548 52.0811 35.6716 51.95C37.2238 51.0086 38.8825 50.253 40.6129 49.6958C39.8414 51.5785 38.8513 53.3666 37.6609 55.0235C37.5507 55.1765 37.5471 55.3822 37.6518 55.5388C37.7381 55.6681 37.8832 55.7427 38.0357 55.7427C38.0687 55.7427 38.1018 55.7391 38.133 55.7318C39.8432 55.3622 41.5258 54.8287 43.1368 54.1495C43.3682 54.053 43.4766 53.7854 43.3774 53.5541Z" fill="#F7E9BC"/>
<path d="M33.2688 30.599C33.1549 30.375 32.8775 30.284 32.6516 30.3968L23.276 35.0873C25.0339 31.4475 27.1519 27.9715 29.5858 24.7396C29.7034 24.583 29.707 24.3681 29.595 24.2079C29.4829 24.0477 29.279 23.9748 29.0898 24.0294C25.9304 24.938 22.9693 26.3565 20.2892 28.2483C20.0835 28.3939 20.0339 28.678 20.1808 28.8837C20.3278 29.0877 20.6143 29.1368 20.8219 28.9912C23.0391 27.4253 25.4564 26.1926 28.0226 25.3186C25.6383 28.6361 23.5754 32.1885 21.8818 35.8957C21.801 36.0723 21.8414 36.2781 21.9828 36.4128C22.071 36.4966 22.1849 36.5403 22.3006 36.5403C22.3704 36.5403 22.4421 36.5239 22.5082 36.4911L33.0667 31.2089C33.2908 31.0979 33.3827 30.8229 33.2688 30.599Z" fill="#F7E9BC"/>
<path d="M48.5503 40.5701C47.7512 40.5701 47.7494 41.8009 48.5503 41.8009C49.3494 41.8009 49.3512 40.5701 48.5503 40.5701Z" fill="#ADB9D1"/>
<path d="M51.3058 25.2114C50.7768 25.2114 50.7768 26.0253 51.3058 26.0253C51.8349 26.0253 51.8349 25.2114 51.3058 25.2114Z" fill="#ADB9D1"/>
<path d="M70.0403 12.3311C68.7453 12.3311 68.7435 14.3267 70.0403 14.3267C71.3353 14.3267 71.339 12.3311 70.0403 12.3311Z" fill="#ADB9D1"/>
<path d="M51.0304 13.7312C50.8431 13.7312 50.8431 14.0189 51.0304 14.0189C51.2178 14.0189 51.2178 13.7312 51.0304 13.7312Z" fill="#ADB9D1"/>
<path d="M6.94621 31.4475C6.71292 31.4475 6.71292 31.8062 6.94621 31.8062C7.17949 31.8062 7.17949 31.4475 6.94621 31.4475Z" fill="#ADB9D1"/>
<path d="M19.3454 38.1628H19.0699C18.7705 38.1628 18.4857 38.4232 18.4986 38.7291C18.5133 39.035 18.7502 39.2954 19.0699 39.2954H19.3454C19.6448 39.2954 19.9295 39.035 19.9167 38.7291C19.902 38.4214 19.665 38.1628 19.3454 38.1628Z" fill="#ADB9D1"/>
<path d="M6.39513 63.2393C5.24339 63.2393 5.24156 65.0146 6.39513 65.0146C7.54687 65.0146 7.54871 63.2393 6.39513 63.2393Z" fill="#ADB9D1"/>
<path d="M19.6209 70.9812C18.5904 70.9812 18.5885 72.569 19.6209 72.569C20.6514 72.5671 20.6532 70.9812 19.6209 70.9812Z" fill="#ADB9D1"/>
<path d="M20.7228 78.1626C20.5079 78.1626 20.506 78.494 20.7228 78.494C20.9377 78.494 20.9377 78.1626 20.7228 78.1626Z" fill="#ADB9D1"/>
<path d="M5.82384 99.9614C5.44544 99.9614 5.44544 100.544 5.82384 100.544C6.20224 100.544 6.20224 99.9614 5.82384 99.9614Z" fill="#ADB9D1"/>
<path d="M20.703 104.459C19.5457 104.459 19.5439 106.241 20.703 106.241C21.8602 106.243 21.8621 104.459 20.703 104.459Z" fill="#ADB9D1"/>
<path d="M39.6228 106.333C39.0056 106.333 39.0056 107.283 39.6228 107.283C40.24 107.283 40.24 106.333 39.6228 106.333Z" fill="#ADB9D1"/>
<path d="M56.6936 110.997C56.6844 110.812 56.6238 110.621 56.4823 110.491C56.4327 110.455 56.385 110.417 56.3354 110.38C56.2233 110.315 56.1021 110.284 55.9716 110.282C55.7696 110.256 55.5436 110.373 55.4059 110.513C55.2608 110.661 55.1799 110.863 55.1799 111.07C55.1781 111.485 55.5253 111.888 55.9661 111.862C56.1572 111.851 56.3372 111.789 56.4768 111.653C56.6017 111.529 56.6954 111.325 56.688 111.147C56.688 111.134 56.6844 111.121 56.6844 111.11C56.6899 111.07 56.6954 111.034 56.6936 110.997Z" fill="#ADB9D1"/>
<path d="M7.66095 112.651C6.73698 112.651 6.73515 114.075 7.66095 114.075C8.58491 114.075 8.58675 112.651 7.66095 112.651Z" fill="#ADB9D1"/>
<path d="M113.834 114.105C113.443 114.124 113.114 114.419 113.114 114.819V115.001C113.114 115.375 113.444 115.733 113.834 115.715C114.225 115.697 114.554 115.402 114.554 115.001V114.819C114.554 114.446 114.223 114.087 113.834 114.105Z" fill="#ADB9D1"/>
<path d="M124.855 116.015H124.672C124.571 116.015 124.571 116.172 124.672 116.172H124.855C124.956 116.172 124.956 116.015 124.855 116.015Z" fill="#ADB9D1"/>
<path d="M170.227 121.649C168.928 121.649 168.926 123.648 170.227 123.648C171.526 123.648 171.528 121.649 170.227 121.649Z" fill="#ADB9D1"/>
<path d="M169.676 107.54C168.736 107.54 168.734 108.989 169.676 108.989C170.617 108.989 170.618 107.54 169.676 107.54Z" fill="#ADB9D1"/>
<path d="M132.754 111.294C132.196 111.294 132.194 112.155 132.754 112.155C133.313 112.154 133.314 111.294 132.754 111.294Z" fill="#ADB9D1"/>
<path d="M129.159 103.27C129.099 103.21 129.036 103.148 128.976 103.088C128.814 102.928 128.574 102.829 128.346 102.829C128.127 102.829 127.866 102.926 127.716 103.088C127.56 103.255 127.444 103.478 127.455 103.712C127.466 103.947 127.545 104.168 127.716 104.337L127.899 104.519C128.061 104.679 128.302 104.778 128.529 104.778C128.748 104.778 129.009 104.681 129.159 104.519C129.316 104.352 129.431 104.129 129.42 103.895C129.409 103.66 129.33 103.439 129.159 103.27Z" fill="#ADB9D1"/>
<path d="M161.41 101.497C160.897 101.497 160.897 102.285 161.41 102.285C161.922 102.287 161.922 101.497 161.41 101.497Z" fill="#ADB9D1"/>
<path d="M149.103 89.9194C148.69 89.9194 148.69 90.5567 149.103 90.5567C149.516 90.5567 149.516 89.9194 149.103 89.9194Z" fill="#ADB9D1"/>
<path d="M139.367 79.2642H139.183C139.121 79.2642 139.121 79.3607 139.183 79.3607H139.367C139.429 79.3625 139.429 79.2642 139.367 79.2642Z" fill="#ADB9D1"/>
<path d="M141.983 67.7984C141.817 67.6491 141.615 67.5544 141.388 67.5544H141.204C140.989 67.5544 140.761 67.6473 140.609 67.7984C140.464 67.9423 140.353 68.1808 140.363 68.3884C140.372 68.6032 140.443 68.8272 140.609 68.9783C140.774 69.1276 140.976 69.2223 141.204 69.2223H141.388C141.602 69.2223 141.83 69.1294 141.983 68.9783C142.128 68.8345 142.238 68.5959 142.229 68.3884C142.218 68.1735 142.146 67.9496 141.983 67.7984Z" fill="#ADB9D1"/>
<path d="M144.435 54.368V54.5501C144.435 54.6466 144.588 54.6466 144.588 54.5501V54.368C144.586 54.2715 144.435 54.2715 144.435 54.368Z" fill="#ADB9D1"/>
<path d="M158.104 80.8757H157.99C157.182 80.8757 157.18 82.1212 157.99 82.1212H158.104C158.912 82.1212 158.914 80.8757 158.104 80.8757Z" fill="#ADB9D1"/>
<path d="M151.307 63.3975C150.028 63.3975 150.025 65.3676 151.307 65.3676C152.585 65.3676 152.589 63.3975 151.307 63.3975Z" fill="#ADB9D1"/>
<path d="M167.104 55.0457C166.564 55.0457 166.564 55.8778 167.104 55.8778C167.644 55.8759 167.644 55.0457 167.104 55.0457Z" fill="#ADB9D1"/>
<path d="M140.469 42.7297H140.285C140.054 42.7297 139.811 42.8299 139.646 42.9919C139.49 43.1467 139.372 43.4016 139.381 43.6256C139.404 44.1099 139.778 44.5214 140.285 44.5214H140.469C140.7 44.5214 140.943 44.4213 141.108 44.2592C141.264 44.1044 141.382 43.8495 141.373 43.6256C141.351 43.1412 140.976 42.7297 140.469 42.7297Z" fill="#ADB9D1"/>
<path d="M160.675 31.6099H160.308C159.926 31.6099 159.558 31.9431 159.575 32.3364C159.593 32.7297 159.896 33.0629 160.308 33.0629H160.675C161.057 33.0629 161.425 32.7297 161.408 32.3364C161.39 31.9431 161.085 31.6099 160.675 31.6099Z" fill="#ADB9D1"/>
<path d="M171.697 34.8892C170.521 34.8892 170.519 36.7009 171.697 36.7009C172.872 36.7027 172.874 34.8892 171.697 34.8892Z" fill="#ADB9D1"/>
<path d="M172.064 26.2712C171.753 26.2712 171.753 26.7483 172.064 26.7483C172.374 26.7483 172.374 26.2712 172.064 26.2712Z" fill="#ADB9D1"/>
<path d="M165.773 3.43075C165.604 3.26324 165.326 3.1376 165.084 3.14671C164.832 3.15763 164.569 3.23957 164.395 3.43075C164.22 3.62012 164.108 3.85318 164.108 4.11356V4.29564C164.108 4.54327 164.217 4.80365 164.395 4.97845C164.564 5.14596 164.841 5.2716 165.084 5.2625C165.335 5.25157 165.598 5.16964 165.773 4.97845C165.947 4.78908 166.059 4.55602 166.059 4.29564V4.11356C166.059 3.86593 165.951 3.60555 165.773 3.43075Z" fill="#ADB9D1"/>
<path d="M153.625 0.683105H153.511C152.132 0.683105 152.128 2.80982 153.511 2.80982H153.625C155.005 2.80982 155.008 0.683105 153.625 0.683105Z" fill="#ADB9D1"/>
<path d="M127.06 9.09521C125.728 9.09521 125.724 11.1473 127.06 11.1473C128.392 11.1491 128.395 9.09521 127.06 9.09521Z" fill="#ADB9D1"/>
<path d="M105.201 2.08521C104.459 2.08521 104.457 3.22868 105.201 3.22868C105.943 3.22868 105.945 2.08521 105.201 2.08521Z" fill="#ADB9D1"/>
<path d="M75.0753 1.09106C73.9879 1.09106 73.986 2.76622 75.0753 2.76622C76.1627 2.76622 76.1646 1.09106 75.0753 1.09106Z" fill="#ADB9D1"/>
<path d="M64.4213 40.022C63.9969 40.022 63.9969 40.6738 64.4213 40.6738C64.8456 40.6738 64.8456 40.022 64.4213 40.022Z" fill="#ADB9D1"/>
<path d="M36.4267 23.1575C36.4212 23.1575 36.4212 23.1647 36.4267 23.1647C36.4321 23.1647 36.4321 23.1575 36.4267 23.1575Z" fill="#515763"/>
<path d="M57.6465 2.67313L57.371 2.4C57.2241 2.25434 56.9559 2.24341 56.8108 2.4C56.6656 2.55659 56.6546 2.80058 56.8108 2.95535C56.9026 3.04639 56.9944 3.13743 57.0863 3.22848C57.2332 3.37414 57.5014 3.38507 57.6465 3.22848C57.7917 3.07189 57.8045 2.8279 57.6465 2.67313Z" fill="#515763"/>
<path d="M1.98653 21.5476H1.71099C1.43545 21.5476 1.17278 21.788 1.18563 22.0684C1.19849 22.3506 1.41708 22.5891 1.71099 22.5891H1.98653C2.26206 22.5891 2.52474 22.3488 2.51188 22.0684C2.49902 21.7861 2.28227 21.5476 1.98653 21.5476Z" fill="#515763"/>
<path d="M13.5591 53.0149C12.6075 53.0149 12.6057 54.4825 13.5591 54.4825C14.5106 54.4825 14.5124 53.0149 13.5591 53.0149Z" fill="#515763"/>
<path d="M-0.1627 89.8411H-0.238013C-1.22443 89.8411 -1.22627 91.3614 -0.238013 91.3614H-0.1627C0.825555 91.3633 0.827392 89.8411 -0.1627 89.8411Z" fill="#515763"/>
<path d="M45.8683 121.56H45.6846C45.4936 121.56 45.3117 121.726 45.3209 121.92C45.3301 122.117 45.4807 122.281 45.6846 122.281H45.8683C46.0593 122.281 46.2412 122.115 46.232 121.92C46.2247 121.724 46.0722 121.56 45.8683 121.56Z" fill="#515763"/>
<path d="M144.509 118.981C144.477 118.981 144.477 119.03 144.509 119.03C144.542 119.032 144.542 118.981 144.509 118.981Z" fill="#515763"/>
<path d="M157.736 110.724C156.911 110.724 156.909 111.993 157.736 111.993C158.561 111.995 158.563 110.724 157.736 110.724Z" fill="#515763"/>
<path d="M172.982 79.0801C172.205 79.0801 172.205 80.2764 172.982 80.2764C173.759 80.2745 173.759 79.0801 172.982 79.0801Z" fill="#515763"/>
<path d="M157.552 54.1003C157.207 54.1149 156.915 54.3771 156.915 54.7322V54.9143C156.915 55.2438 157.207 55.5606 157.552 55.5461C157.897 55.5315 158.189 55.2693 158.189 54.9143V54.7322C158.189 54.4026 157.896 54.0858 157.552 54.1003Z" fill="#515763"/>
<path d="M139.918 24.8525C139.659 24.8525 139.659 25.2513 139.918 25.2513C140.177 25.2531 140.177 24.8525 139.918 24.8525Z" fill="#515763"/>
<path d="M173.717 7.72046C173.673 7.72046 173.673 7.78748 173.717 7.78748C173.76 7.78929 173.76 7.72046 173.717 7.72046Z" fill="#515763"/>
<path d="M111.262 7.56396C111.25 7.56396 111.25 7.58311 111.262 7.58311C111.274 7.58137 111.274 7.56396 111.262 7.56396Z" fill="#515763"/>
<path d="M98.0367 6.38207C97.684 6.39845 97.3865 6.66429 97.3865 7.02664V7.20872C97.3865 7.54557 97.6859 7.86785 98.0367 7.85329C98.3894 7.8369 98.687 7.57106 98.687 7.20872V7.02664C98.687 6.68979 98.3876 6.3675 98.0367 6.38207Z" fill="#515763"/>
<path d="M65.9091 25.4827C64.6673 25.4827 64.6655 27.3945 65.9091 27.3945C67.149 27.3945 67.1526 25.4827 65.9091 25.4827Z" fill="#F2E3B5"/>
<path d="M38.5427 22.4291C38.3608 22.2488 38.0651 22.1141 37.8042 22.1268C37.5342 22.1396 37.255 22.227 37.0658 22.4291C36.8784 22.6312 36.7609 22.8806 36.7609 23.161V23.4342C36.7609 23.7 36.8766 23.9786 37.0658 24.1661C37.2476 24.3464 37.5434 24.4811 37.8042 24.4684C38.0743 24.4556 38.3535 24.3682 38.5427 24.1661C38.73 23.964 38.8476 23.7146 38.8476 23.4342V23.161C38.8476 22.8952 38.7319 22.6166 38.5427 22.4291Z" fill="#F2E3B5"/>
<path d="M38.3552 8.24316C38.1366 8.24316 38.1348 8.58184 38.3552 8.58184C38.5756 8.58184 38.5756 8.24316 38.3552 8.24316Z" fill="#F2E3B5"/>
<path d="M18.5186 19.9873H18.243C18.0097 19.9873 17.7875 20.1912 17.7985 20.4279C17.8095 20.6665 17.995 20.8704 18.243 20.8704H18.5186C18.7518 20.8704 18.9741 20.6665 18.9631 20.4279C18.9521 20.1912 18.7684 19.9873 18.5186 19.9873Z" fill="#F2E3B5"/>
<path d="M0.0576032 54.2517C-0.708387 54.2517 -0.710223 55.4316 0.0576032 55.4316C0.823593 55.4316 0.82543 54.2517 0.0576032 54.2517Z" fill="#F2E3B5"/>
<path d="M26.2337 55.5369H25.9581C25.7487 55.5369 25.5467 55.7189 25.5577 55.9338C25.5669 56.1487 25.734 56.3307 25.9581 56.3307H26.2337C26.4431 56.3307 26.6451 56.1487 26.6341 55.9338C26.6249 55.7189 26.4578 55.5369 26.2337 55.5369Z" fill="#F2E3B5"/>
<path d="M23.4781 87.3047C22.7213 87.3047 22.7194 88.47 23.4781 88.47C24.2349 88.47 24.2367 87.3047 23.4781 87.3047Z" fill="#F2E3B5"/>
<path d="M13.2833 92.2502C12.565 92.2502 12.5632 93.3573 13.2833 93.3573C14.0015 93.3573 14.0033 92.2502 13.2833 92.2502Z" fill="#F2E3B5"/>
<path d="M0.992772 107.505C0.921132 107.288 0.785201 107.071 0.573957 106.964C0.419657 106.886 0.25801 106.824 0.0816668 106.831C-0.158968 106.842 -0.410624 106.926 -0.579619 107.104C-0.768821 107.305 -0.858829 107.541 -0.868014 107.811C-0.877198 108.06 -0.76331 108.348 -0.577782 108.517C-0.250813 108.814 0.18637 108.865 0.575794 108.657C0.77418 108.552 0.935827 108.328 0.994608 108.117C1.01849 108.031 1.024 107.935 1.02032 107.838C1.03318 107.725 1.02767 107.612 0.992772 107.505Z" fill="#F2E3B5"/>
<path d="M35.2142 94.1548C34.6246 94.1548 34.6246 95.0615 35.2142 95.0615C35.8039 95.0615 35.8039 94.1548 35.2142 94.1548Z" fill="#F2E3B5"/>
<path d="M130.917 120.409C129.901 120.409 129.899 121.973 130.917 121.973C131.933 121.975 131.935 120.409 130.917 120.409Z" fill="#F2E3B5"/>
<path d="M144.589 120.568C144.529 120.508 144.466 120.446 144.405 120.386C144.244 120.225 144.005 120.127 143.775 120.127C143.557 120.127 143.296 120.223 143.145 120.386C142.989 120.553 142.873 120.775 142.885 121.01C142.896 121.243 142.975 121.465 143.145 121.635C143.206 121.695 143.268 121.757 143.329 121.817C143.491 121.977 143.729 122.075 143.959 122.075C144.178 122.075 144.439 121.979 144.589 121.817C144.745 121.649 144.861 121.427 144.85 121.192C144.839 120.959 144.758 120.737 144.589 120.568Z" fill="#F2E3B5"/>
<path d="M156.634 119.51C156.103 119.51 156.103 120.327 156.634 120.327C157.165 120.325 157.165 119.51 156.634 119.51Z" fill="#F2E3B5"/>
<path d="M147.633 102.101C147.449 102.108 147.293 102.248 147.293 102.438V102.62C147.293 102.796 147.449 102.964 147.633 102.957C147.816 102.949 147.973 102.809 147.973 102.62V102.438C147.973 102.261 147.816 102.094 147.633 102.101Z" fill="#F2E3B5"/>
<path d="M137.162 93.8652C136.435 93.8652 136.433 94.985 137.162 94.985C137.89 94.9869 137.892 93.8652 137.162 93.8652Z" fill="#F2E3B5"/>
<path d="M175.186 96.438C174.488 96.438 174.488 97.5123 175.186 97.5123C175.884 97.5123 175.884 96.438 175.186 96.438Z" fill="#F2E3B5"/>
<path d="M147.526 78.6906C147.466 78.6305 147.403 78.5686 147.342 78.5085C147.207 78.3738 146.957 78.3628 146.823 78.5085C146.689 78.6542 146.678 78.88 146.823 79.0238L147.006 79.2059C147.142 79.3406 147.392 79.3516 147.526 79.2059C147.66 79.062 147.671 78.8363 147.526 78.6906Z" fill="#F2E3B5"/>
<path d="M162.144 70.1235C161.797 70.1235 161.795 70.6588 162.144 70.6588C162.491 70.6588 162.493 70.1235 162.144 70.1235Z" fill="#F2E3B5"/>
<path d="M169.676 65.3056C169.384 65.3184 169.138 65.5405 169.138 65.8391V66.0212C169.138 66.2998 169.386 66.5674 169.676 66.5547C169.968 66.5419 170.214 66.3198 170.214 66.0212V65.8391C170.214 65.5605 169.966 65.2929 169.676 65.3056Z" fill="#F2E3B5"/>
<path d="M147.449 36.2146C147.256 36.2237 147.091 36.3693 147.091 36.5696V36.6607C147.091 36.8464 147.254 37.023 147.449 37.0157C147.642 37.0066 147.807 36.861 147.807 36.6607V36.5696C147.807 36.3839 147.642 36.2073 147.449 36.2146Z" fill="#F2E3B5"/>
<path d="M136.979 32.3345C136.738 32.3345 136.738 32.7041 136.979 32.7041C137.22 32.7023 137.22 32.3345 136.979 32.3345Z" fill="#F2E3B5"/>
<path d="M171.512 16.2236H171.329C171.09 16.2236 170.859 16.433 170.871 16.677C170.882 16.9228 171.073 17.1304 171.329 17.1304H171.512C171.751 17.1304 171.983 16.921 171.97 16.677C171.959 16.4312 171.77 16.2236 171.512 16.2236Z" fill="#D5A6D2"/>
<path d="M174.452 9.7981C173.322 9.7981 173.32 11.5388 174.452 11.5388C175.581 11.5388 175.583 9.7981 174.452 9.7981Z" fill="#D5A6D2"/>
<path d="M134.879 1.21115C134.831 1.16745 134.773 1.14014 134.707 1.14014H134.661C134.598 1.14014 134.532 1.16745 134.488 1.21115C134.446 1.25303 134.413 1.32222 134.416 1.38231C134.42 1.44603 134.44 1.50976 134.488 1.55346C134.536 1.59716 134.594 1.62447 134.661 1.62447H134.707C134.769 1.62447 134.835 1.59716 134.879 1.55346C134.921 1.51158 134.955 1.44239 134.951 1.38231C134.947 1.31858 134.927 1.25485 134.879 1.21115Z" fill="#F2E3B5"/>
<path d="M120.446 -0.697266C119.403 -0.697266 119.401 0.910516 120.446 0.910516C121.49 0.912337 121.492 -0.697266 120.446 -0.697266Z" fill="#F2E3B5"/>
<path d="M110.344 7.88062C109.324 7.88062 109.322 9.45016 110.344 9.45016C111.363 9.45016 111.365 7.88062 110.344 7.88062Z" fill="#D5A6D2"/>
<path d="M87.3822 8.09912C87.1195 8.09912 87.1176 8.50516 87.3822 8.50516C87.6448 8.50334 87.6467 8.09912 87.3822 8.09912Z" fill="#F2E3B5"/>
<path d="M66.0738 42.6492C65.9897 42.6492 65.9897 42.7778 66.0738 42.7778C66.1578 42.7796 66.1578 42.6492 66.0738 42.6492Z" fill="#F2E3B5"/>
</g>
</svg>
